<?xml version="1.0" encoding="UTF-8"?>
<svg id="_Шар_2" data-name="Шар 2" xmlns="http://www.w3.org/2000/svg" viewBox="0 0 2106.16 2017.89">
  <defs>
    <style>
      .cls-1 {
        fill: #f8b05d;
      }

      .cls-2, .cls-3 {
        fill: #fff;
      }

      .cls-4 {
        fill: #5159a4;
      }

      .cls-4, .cls-3 {
        fill-rule: evenodd;
      }

      .cls-5 {
        fill: #4d4c4c;
      }

      .cls-6 {
        fill: none;
      }

      .cls-7 {
        fill: #282828;
      }

      .cls-8 {
        fill: #fcdfa6;
      }

      .cls-9 {
        fill: #def0f0;
      }

      .cls-10 {
        fill: #789393;
      }

      .cls-11 {
        fill: #ed6b6d;
      }

      .cls-12 {
        fill: #5d5c5c;
      }

      .cls-13 {
        fill: #feecdc;
      }
    </style>
  </defs>
  <g id="_Шар_1-2" data-name="Шар 1">
    <g id="site_logo" data-name="site logo">
      <g>
        <g>
          <polyline class="cls-8" points="1051.95 530.76 1773.01 530.76 1773.01 1809.73 322.24 1809.73 322.24 530.76 1051.95 530.76"/>
          <path class="cls-12" d="M1051.95,530.76c179.56-.99,541.5-3.62,721.06-4.33,0,0,4.31-.02,4.31-.02l.02,4.35c.06,362.61,4.17,920.5,3.36,1278.98,0,0,.01,7.68.01,7.68h-7.69c-365.65.47-1092.91,1.01-1458.49.02-.78-360.42,2.64-922.2,3.35-1286.68,0,0,.02-4.39.02-4.39l4.36.02c182.04,1.16,547.76,2.89,729.71,4.37-181.72,1.55-547.99,3.28-729.71,4.37,0,0,4.37-4.37,4.37-4.37,2.52,362.61,2.4,920.5,3.34,1278.98,0,0-7.71-7.71-7.71-7.71,361.6-1.06,1089.26-.53,1450.77.02,0,0-7.69,7.69-7.69,7.69.91-356.96,1.48-917.94,3.36-1278.98,0,0,4.32,4.33,4.32,4.33-179.88-.63-541.27-3.26-721.06-4.32h0Z"/>
        </g>
        <g>
          <g>
            <path class="cls-2" d="M1259.29,938.03v.1c-11.14,127.3-74.67,248.64-170.21,273.66-.98.29-1.91.54-2.88.68-1.61.44-3.32.78-4.98,1.17-1.86.34-3.71.73-5.57,1.03-1.51.24-3.03.49-4.54.64-.64.1-1.32.2-1.95.24-1.56.2-3.13.39-4.69.49-.24,0-.54.05-.78,0-1.56.2-3.18.24-4.84.29-2.1.15-4.25.2-6.4.2s-4.35-.05-6.45-.2c-1.61-.05-3.23-.1-4.79-.29-.24.05-.54.05-.78,0-1.56-.1-3.13-.29-4.69-.49-.68-.05-1.32-.1-2-.24-1.47-.15-2.98-.39-4.5-.64-4.64-.73-9.14-1.71-13.54-2.88-140.01-36.8-211.26-280.36-149.39-446.42,3.52-9.43,6.55-18.47,9.04-26.98,2.25-7.48,4.1-14.61,5.72-21.4,3.47-14.61,5.57-27.76,6.94-39.63,33.28,2.39,66.66,5.08,99.01,12.95,26.98,6.5,53.17,16.57,80.68,20.48,52.73,7.48,108.15-10.17,147.97-45.4,1.61,19.94,5.13,43.98,13.78,73.01,2.59,8.5,5.57,17.54,9.09,26.98,19.69,52.78,25.9,113.38,20.77,172.65Z"/>
            <path class="cls-13" d="M1259.29,938.03v.1c-16.32,45.74-37.73,89.63-63.24,130.92-14.27,23.11-30.05,45.64-50.53,63.48-20.52,17.84-46.23,30.69-73.35,31.67-27.12.93-55.42-11.48-69.49-34.7-17.25-28.39-10.46-65.04,1.03-96.22,15.88-43.1,39.93-83.81,47.01-129.21,3.42-21.99,2.49-45.5-8.11-65.09-11.83-21.8-33.91-35.92-56.35-46.47-22.38-10.6-46.18-18.67-66.51-32.84-15.88-11.09-29.17-25.8-38.7-42.66,3.47-14.61,5.57-27.76,6.94-39.63,33.28,2.39,66.66,5.08,99.01,12.95,26.98,6.5,53.17,16.57,80.68,20.48,52.73,7.48,108.15-10.17,147.97-45.4,1.61,19.94,5.13,43.98,13.78,73.01,2.59,8.5,5.57,17.54,9.09,26.98,19.69,52.78,25.9,113.38,20.77,172.65Z"/>
            <path class="cls-12" d="M1184.81,743.57c-24.9,48.77-56.34,94.13-92.58,135.19,0,0-5.32-5.39-5.32-5.39,32.14-28.93,66.61-55.29,102.84-78.9,3.38-2.39,7.94,1.77,5.94,5.34-16.01,30.85-34.27,60.54-54.52,88.77-20.11,28.26-42.23,55.11-66.38,79.99,43.87-53.29,82.28-111.01,113.56-172.54,0,0,5.94,5.34,5.94,5.34-35.73,23.73-69.9,49.76-102.41,77.75-3.51,3.05-8.45-2-5.27-5.43,36.95-39.94,69.65-83.77,98.21-130.1h0Z"/>
          </g>
          <g>
            <path class="cls-2" d="M1694.02,1298.59c5.33-81.81,2.1-147.09-11.58-197.23-4.15-15.39-9.33-29.32-15.59-41.88v-.05c-18.91-38.46-47.65-63.87-87.67-77.41-79.51-26.88-138.2-47.99-188.98-74.87-10.02-5.33-19.74-10.85-29.22-16.66-148.9-91.53-55.32-55.61-84.98-12.41-18.57,26.93-110.74,128.92-123.2,159.12-13.83,33.52-52.63,67.34-98.52,100.72-45.84-33.38-84.69-67.19-98.52-100.72-12.41-30.2-104.68-132.19-123.2-159.12-25.95-37.68,39.05-69.83-42.91-16.62-11.97,7.77-27.07,17.35-46.03,29.03-57.57,35.43-120.9,52.39-220.59,87.67-32.64,11.53-64.07,31.37-88.26,64.16-.15.15-.24.29-.34.44-39.68,54.05-59.77,143.19-33.47,288.23,8.06,44.42-2.39,94.12-5.08,142.89-.1,1.71-.2,3.32-.24,5.03v.05c-.68,15.44-.49,30.74,1.37,45.79v.05c7.04,55.95,37.58,107.76,134.49,145.43,39.78,6.06,87.91-46.03,111.37-104.87,9.97,21.21,19.74,43.88,24.43,70.03.29,1.76.59,3.42.88,5.13,5.03,32.64.83,52.88,7.38,79.36v.05c2.83,11.53,7.72,24.29,16.32,39.78,1.22,2.35,2.64,4.74,4.11,7.18,16.86,28.05,229.34,99.3,339.93,91.24,3.47-.2,6.79-.59,9.97-.93,2.88-.39,5.67-.73,8.41-1.22,106.44,17.79,292.77-29.81,356.25-91.87,4.94-4.84,9.14-9.87,12.66-15.15,8.45-12.41,13.44-26,16.62-40.41,6.74-30.49,5.62-64.75,12.27-100.23.24-1.51.54-2.98.83-4.45.88-4.2,1.81-8.36,2.88-12.41,13.68,32.79,64.31,60.01,194.45,63.92,25.9-27.22,40.61-56.3,48.38-86.6,3.42-13.1,5.47-26.49,6.6-40.02.64-7.87.98-15.83,1.03-23.8v-.05c.64-66.9-16.71-137.47-12.22-206.32ZM1499.62,1468.01c.15-1.03.24-2.05.29-3.03.24.73.15,1.76-.29,3.03ZM612.46,1464.4c-.29.44-.44.73-.64.93.15-.24.34-.64.64-1.27v.34Z"/>
            <path class="cls-9" d="M1682.44,1101.35c-4.15-15.39-9.33-29.32-15.59-41.88v-.05c-18.91-38.46-47.65-63.87-87.67-77.41-79.51-26.88-138.2-47.99-188.98-74.87-9.33,3.37-18.57,7.13-27.56,11.29-67.88,31.18-125.89,80.1-181.16,130.38-33.18,30.25-65.78,61.23-101.26,88.75-9.29,7.13-19.21,14.32-30.79,16.08-20.48,3.13-39.39-11.24-53.51-26.39-50.58-54.05-76.19-126.67-120.12-186.19-23.36-31.72-52.19-59.77-86.16-79.61-11.97,7.77-27.07,17.35-46.03,29.03-57.57,35.43-120.9,52.39-220.59,87.67-32.64,11.53-64.07,31.37-88.26,64.16,37.78-17.79,74.57-38.8,115.38-47.55,41.78-8.94,90.21-2.15,118.7,29.76,26.14,29.32,29.57,71.84,32.4,111.03,2.25,31.37,4.98,62.85,8.94,94.17v.1c8.75,69.93,23.36,138.93,51.31,203.34.1.2.49.39,1.17.64,21.31,7.57,323.46,37.82,329.91,39.05,2.64.54,4.69-2.05,6.11-6.3,7.43,19.55,21.4,36.51,46.08,30.4,6.21-1.51,176.95-14.81,183.16-16.08,26.05-5.28,45.74-25.95,58.54-49.8,2.49-4.54,4.64-9.24,6.6-13.93,20.52-50.04,19.4-105.21,21.55-159.65v-.05c.44-11.73,1.03-23.41,2-34.99,3.81-44.18,13.63-87.82,29.08-129.4,13.98-37.63,35.38-76.33,72.33-92.07,37.34-15.93,80.78-2.83,110.93,21.94,16.86,13.88,26.39,34.79,36.99,53.8v.05c4.94,8.94,10.16,17.45,16.47,24.58ZM1092.59,1419.73c-228.51-15.59-277.53-74.96-295.36-162.98-12.95-63.87,8.55-181.99,78.68-127.4,46.82,36.46,193.42,134.05,208.77,206.96,5.72,35.53,5.96,61.97,8.01,83.42h-.1ZM1119.77,1422.81c-3.62-43.44-5.96-84.01-11.92-132.68-2-16.62-24.97-86.84,33.43-141.13,26.39-24.53,46.18-40.56,78.43-56.69,19.94-9.92,48.92-17.4,60.4,1.66,3.23,5.33,9.82,58.25,10.6,64.41,13.93,111.23,1.22,275.77-170.94,264.43Z"/>
            <path class="cls-9" d="M1706.24,1504.91v.05c-.05,7.97-.39,15.93-1.03,23.8-1.12,13.54-3.18,26.93-6.6,40.02-5.67-3.62-10.7-9.14-15.25-14.12-47.79-52.68-121.05-81.12-191.86-74.52-7.67.73-15.83,1.76-22.77-1.61-6.45-3.13-10.6-9.43-15.1-14.95-16.32-19.84-41.54-31.81-67.15-32.5-4.06-.2-8.06,0-12.07.44,10.56-58.59,23.95-116.7,40.22-174.02v-.05c3.81-13.59,7.82-27.12,11.97-40.61,21.75-70.81,54.05-158.33,121.15-198.75,62.75-37.78,3.42,56.25-9.04,77.85-25.36,44.13-52.92,86.94-82.59,128.28,34.21-32.94,81.02-52.44,128.52-53.51,14.81-.34,30.25,1.22,42.81,9.09,12.56,7.87,21.21,23.46,17.2,37.68-70.76-16.42-149.68,9.28-197.14,64.26,62.99-37.43,152.91-19.6,196.89,39.05-62.75-7.33-127.79,6.5-182.13,38.75,57.67-6.94,117.43,4.59,168.4,32.45-34.7-5.18-69.83-7.33-104.87-6.4,35.19,1.17,69.74,15.83,98.57,36.65,18.23,13.15,34.5,28.59,49.7,45.15,11.19,12.07,21.8,24.73,32.16,37.53Z"/>
            <path class="cls-9" d="M762.68,1433.81c-.68,6.55-1.91,13.1-3.81,19.5-50.58-45.35-126.42-55.37-191.86-37.04-65.43,18.37-121.44,61.67-167.28,111.81-.98-1.03-1.91-2.15-2.74-3.27v-.05c-1.86-15.05-2.05-30.35-1.37-45.79v-.05c.39-.83.83-1.61,1.27-2.35.49-.93,1.03-1.81,1.56-2.64,5.03-7.77,11.68-14.27,19.11-19.79v-.05c8.16-6.06,17.3-11.09,26.39-15.69,49.85-24.92,104.38-40.41,159.9-45.5-43.35-3.47-86.64-6.94-129.99-10.41,47.6-21.65,100.72-30.93,152.81-26.73-52.68-17.64-107.76-28.25-163.22-31.47,10.16-38.61,53.46-60.74,93.34-60.06,39.88.73,77.11,18.86,112.84,36.65-40.27-70.42-126.57-111.32-206.57-97.88-8.6,1.42-19.69,2.35-23.8-5.38-5.57-10.36,8.8-19.99,20.33-22.48,69.59-14.9,145.78,5.28,198.8,52.68-12.9-11.53-20.77-56.69-30.25-74.09-13.73-25.12-30.45-48.67-49.65-69.93-10.26-11.34-46.96-33.82-36.99-49.11,15.59-24.04,47.26,16.27,56.88,26.68,45.74,49.36,83.42,106.78,111.81,168.35v.1c20.33,43.98,35.87,90.11,46.28,136.93,4.84,21.99,8.6,44.86,6.21,67.05Z"/>
            <path class="cls-9" d="M417.57,1454.13c-4.74,11.68-9.77,23.21-14.76,34.55-2.25-3.91-4.2-7.97-5.91-12.12-.34-.88-.73-1.81-1.03-2.69,2.69-48.77,13.15-98.47,5.08-142.89-26.29-145.04-6.21-234.18,33.47-288.23-2.83,17.3-11.68,35.67-15.78,49.16-12.85,42.37-14.51,88.16-3.08,131.02,8.01,30.15,21.99,58.74,27.02,89.53,7.92,48.04-6.45,95.88-25.02,141.67Z"/>
            <path class="cls-9" d="M1706.24,1504.91v.05c-.05,7.97-.39,15.93-1.03,23.8-3.13,1.86-6.55,2.74-10.36,2.05-11.68-2.05-15.49-16.66-16.81-28.44-1.32-11.68-2.64-23.31-3.96-34.99-2.05-18.47-4.15-36.94-6.21-55.37-5.57-49.9-11.09-101.11,1.47-149.68,5.38-20.87,14.03-40.9,18.03-62.06,4.35-22.87,2.93-46.13-1.61-68.86-2.69-13.49-16.22-37.68-19.79-54.64v-.05c-.88-3.96-1.17-7.57-.68-10.51.44-2.59.98-4.84,1.56-6.74,6.26,12.56,11.44,26.49,15.59,41.88,13.68,50.14,16.91,115.43,11.58,197.23-4.5,68.86,12.85,139.42,12.22,206.32Z"/>
            <path class="cls-9" d="M1439.81,1708.55c-3.18,14.42-8.16,28-16.62,40.41-3.52,5.28-7.72,10.31-12.66,15.15-63.48,62.06-249.82,109.66-356.25,91.87-2.74.49-5.52.83-8.41,1.22-3.18.34-6.5.73-9.97.93-110.59,8.06-323.07-63.19-339.93-91.24-1.47-2.44-2.88-4.84-4.11-7.18-8.6-15.49-13.49-28.25-16.32-39.78v-.05c4.69-7.77,14.9-11.83,24.04-14.56,145.63-43.59,300.74-40.02,450.96-63.43,52.83-8.26,106-19.89,159.17-14.46,37.63,3.81,76.24,17.69,104.19,43.84,11.34,10.6,20.18,23.55,25.9,37.29Z"/>
            <path class="cls-12" d="M1499.91,1465.01c-2.69,29-17.64,54.92-27.92,81.67-11,26.69-19.03,54.5-21.76,83.23-6.25,62.23-1.52,117-62,154.86-86.38,56.64-236.56,90.08-333.19,75.57-58.51,8.48-116.74-3.18-173.55-15.59-56.64-13.86-112.59-29.87-165.17-55.99-6.55-3.56-13.04-7.08-19.31-12.31-6.48-5.5-9.43-12.69-13.28-19.63-14.94-25.57-19.13-57.36-19.01-86.17-.48-43.53-17.14-82.05-36.6-120.94-12.82-26.5-25.12-55.65-22.6-86.2l13.13,3.65-.54,1.1-.06.12.13-.31c9.26,6.45-11.66-11.34-11.2-7.56-1.34,1.42-.91,1.12-1.01,1.17-.18.28.21-.35.21-.35,7-11.55,24.32-39.72,39.44-22.37,43.28,56.76,3.64,150.79-37.95,198.63-19.23,21.68-46.04,43.86-77.3,40.09-15.88-5.86-31.42-12.97-46.34-21.32-87.99-47.76-104.96-119.52-93.61-212.99,3.05-32.2,7.34-64.06,4.69-95.02-1.5-14.98-4.62-31.36-6.97-47.41-6.92-48.36-9.88-98.04-3.55-146.83,8.46-66.44,38.77-132.09,98.85-166.69,24.33-15.16,64.31-26.37,91.39-36.15,45.58-15.67,91.35-30.06,134.44-51.26,28.37-14.12,55.21-32.24,82-49.35,6.36-4.02,23.89-16.04,30.05-20.14,2.76-1.72,6.13-4.54,9.87-5.16,5.38-.73,10.14,3.6,9.68,9.07-.21,1.9-.47,2.26-.66,2.9-7.69,14.6-8.93,27.75,1.97,40.29,29.43,38.01,61.94,74.07,91.41,112.45,10.19,13.63,20.12,25.77,28.06,41.41,3.2,6.98,6.54,13.82,10.85,20.22,22.58,32.3,54.43,56.29,86.26,80.03,0,0-9,0-9,0,24.46-17.89,48.55-36.52,68.91-58.16,11.48-12.2,21.27-25.32,27.66-40.19,5.99-12.6,14.69-23.96,22.85-35.06,27.99-36.77,58.2-71.15,87.25-106.78,14.8-17.8,26.81-30.63,11.26-53.9,0,0-.33-.68-.33-.68-.19-.53-.19-.2-.6-1.76-1.18,1.59.2-9.44,6.49-8.92,3.76.12,2.83.51,3.91.74,1.79.7,2.81,1.87,4.11,2.62,41.76,29.53,84.56,58.33,130.45,81.07,54.52,26.51,112.51,46.02,170.27,66.1,29.67,10.52,57.3,29.56,75.21,55.86,52.01,79.48,45.19,180.55,41.09,270.75-5.47,90.37,27.65,184.67.85,274.42-9.03,29.76-25.7,56.95-47.13,79.22-.5.53-1.19.79-1.86.77-29.44-1.15-58.91-3.32-88.03-8.33-56.85-9.12-133.71-35.88-105.56-108.16,7.78-20.84,20.54-39.1,33.17-57.17,3.68-6.04,9.73-11.94,10.16-19.17h0ZM1499.91,1465.01c-.22,7.28-6.39,13.22-9.86,19.37-12.27,18.18-24.76,36.69-32.12,57.45-26.71,70.78,49.77,95.71,104.85,103.85,28.91,4.62,58.24,6.43,87.54,7.22l-1.86.77c20.7-22.06,36.51-48.6,44.93-77.57,25.35-89.94-9.12-181.05-4.09-273.14,4.36-108.57,13.3-271.85-111.1-315.05-72.16-24.64-146.51-48.32-213.17-87.16-29.76-17.81-58.94-36.21-87.29-56.19l-4.65-3.29-1.99-1.34c-.16-.11-.1-.05.1.04.86.14-.29.41,3.23.53,5.99.46,7.38-10.16,6.28-8.39-.37-1.32-.24-.78-.35-1.09,3.87,6.31,8.5,15.35,8.99,24.72,1.94,18.18-11.4,32.02-21.6,44.92-9.68,11.98-19.5,23.71-29.28,35.47-19.53,23.51-39.12,46.97-57.39,71.11-7.54,10.35-15.43,20.57-20.99,32.05-7.17,16.81-18.33,31.74-30.35,44.54-21.57,23.01-46.15,42.01-70.94,60.26-2.73,2.01-6.39,1.9-9,0-32.5-24.09-66.44-49.62-90.21-83.71-4.74-6.96-8.53-14.63-12.09-22.29-6.71-13.09-17.19-26.34-26.35-38.39-19.65-25.24-40.47-49.82-61.14-74.59-10.34-12.47-20.72-24.64-30.76-37.92-5.89-7.4-10.5-16.25-11.18-25.92-.97-10.95,2.7-20.94,6.91-29.51-.03.16-.11.04-.28,1.44.22.86-.68,2.59,2.26,5.99,3.93,3.17,5.11,2.06,6.55,2.23.42-.02,1.19-.27,1.27-.31l.26-.1c-2.16.9-11.98,8.24-14.57,9.77-33.77,22.42-67.6,45.56-103.78,64.05-43.75,21.69-90.6,36.6-136.37,52.45-20.3,7.63-59.23,18.94-78.1,29.14-61.13,29.28-93.3,94.6-101.33,159.87-5.32,38.75-3.95,79.56.23,118.63,1.95,23.38,7.67,48.56,9.91,72.03,5.2,64.75-16.81,128.78-3.7,191.84,8.84,46.36,43.49,82.62,84.12,104.34,13.58,7.86,28.17,14.07,42.79,20.1l-1.59-.43c5.65.72,11.53.13,17.37-1.42,5.82-1.81,11.56-4.41,17.01-7.79,52.27-33.63,100.31-129.61,76.31-190.67-2.2-5.64-5.56-10.82-9.17-15.64-.22,0,1.14.55,1.31.38-6.43,3.33-11.86,12.32-16.06,18.67,0,0-1.33,2.16-1.33,2.16l-.42.68-.14.22c-.13.1.27-.15-1.11,1.3.41,3.87-20.48-14.06-11.2-7.63,1.57-4.59,5.65-7.49,10.36-5.28,2.61,1.31,4.03,4.05,3.81,6.78-1.13,13.42.86,27,4.85,40.24,13.19,41.19,38.59,77.54,47.57,121.22,9.86,42.46-1.05,86.46,22.3,125.41,3.11,5.49,5.73,12.35,10.43,16.27,4.8,4.1,11.03,7.66,17.13,11.01,25.02,13.12,52.16,23.16,79.31,32.38,54.45,18.04,110.57,32.34,167.48,39.67,28.4,3.48,57.31,5.19,85.17.86,101.65,14.53,245.11-15.96,331.91-70.88,59.46-36.19,54.96-89.82,61.98-151.19,3.14-28.84,11.78-56.95,23.21-83.44,10.73-26.61,26.03-52.18,29.2-81.14h0Z"/>
            <path class="cls-12" d="M1054.29,1855.99c75.69-98.72,63.65-256.72,56.04-374.85-9.8-110.5-27.76-219.96-51.17-328.28-.75.08-1.5.23-2.25.27-.88.04-1.78,0-2.68-.06,16.17,124.79,34.64,252.75,42.8,377.2,2.06,29.84,3.72,65.6,3.69,95.42.24,47.13-1.66,95.89-11.84,141.94-6.54,30.96-17.77,60.98-34.57,88.36Z"/>
            <path class="cls-10" d="M1315.92,1162.73c2.15-7.57,3.81-15.98,5.23-24.87.54,6.21.2,12.22-1.71,18.23-.78,2.35-1.76,4.69-3.03,7.09-.39.73-.78,1.47-1.17,2.15.24-.93.44-1.81.68-2.59Z"/>
            <path class="cls-2" d="M1674.23,1704.73c-6.5,16.03-17.06,26.98-29.47,33.23-14.95,7.62-32.64,8.45-49.26,3.57-16.22-4.79-31.42-15.05-42.03-29.96-34.01-47.79-63.19-87.48-91.29-116.65-28.93-30.1-56.74-49.02-87.57-54-13.49-2.2-27.61-1.76-42.61,1.61-16.32,3.62-23.46-27.85-10.65-45.64,4.94-6.79,10.02-12.02,15.1-16.76,13.19-12.41,26-21.5,33.72-46.47,16.96-54.78,154.47-40.66,246.05,5.67,72.81,36.85,101.84,103.85,116.75,162.93.2.83.44,1.71.64,2.54,10.46,42.27-33.33,35.72-59.38,99.94Z"/>
            <path class="cls-9" d="M1732.97,1602.26c-1.76,3.62-3.86,6.16-6.45,7.23-22.48-69.54-56.98-110.15-81.9-132.48-36.94-33.04-85.03-58.15-88.01-44.47-3.32,15.25,24.48,27.56,45.11,40.32,44.18,27.32,61.57,83.32,70.03,134.54-12.95-10.31-17.4-27.56-24.04-42.71-10.16-23.16-27.07-43.3-48.09-57.32.44,15.25,21.16,36.26,29.86,48.77,12.46,17.89,28.05,49.65,32.11,71.1,7.04,37.38-4.84,56.83-13.19,93.97-1.27,5.52-2.83,11.14-3.62,16.76-14.95,7.62-32.64,8.45-49.26,3.57-12.46-34.31-20.38-71.05-46.18-96.17-19.06-18.57-45.11-27.76-68.71-40.02-6.26-3.23-12.41-6.74-18.42-10.41-23.07-13.93-44.86-30.01-68.37-43.15-6.4-3.57-12.95-6.94-19.21-10.85-7.13-4.3-13.83-9.24-19.3-15.49-10.9-12.46-15.69-28.93-18.86-45.3,13.19-12.41,26-21.5,33.72-46.47,16.96-54.78,154.47-40.66,246.05,5.67,72.81,36.85,101.84,103.85,116.75,162.93Z"/>
            <path class="cls-12" d="M1370.16,1433.67c-6.07,25.4-27.81,39.49-44.07,57.75-11.98,12.38-15.9,36.76-1.95,48.79,4.27,3.15,12.48.13,17.23-.4,12.19-2.14,24.96-2.05,37.14.01,69.73,13.58,121.93,92.13,163.82,144.85,6.09,7.86,15.47,21.19,21.96,28.64,21.76,24.31,63.04,32.49,87.85,9.4,0,0,5.4-5.82,5.4-5.82,5.04-6.9,8.58-14.56,11.99-22.51,5.41-11.74,12.39-23.02,20.97-32.89,8.41-9.94,18.75-18.23,26.89-26.07,8.4-7.96,11.21-15.07,9.12-25.96-19.22-90.36-63.17-153.49-152.29-185.19-46.14-19.02-179.92-51.14-204.07,9.39h0ZM1366.18,1421.4c23.12-60.18,160.08-20.76,207.15-4.42,92.7,28.27,147.09,96.9,168.57,189.66,8.3,31.15-22.69,46.34-38.68,65.75-7.47,8.74-13.41,18.62-18.23,29.16-3.61,8.49-8.59,18.4-14.36,25.87-11.08,13.6-27.43,22.84-44.75,24.68-34.69,4.19-66.79-15.75-83.87-44.5,0,0-10.4-15.17-10.4-15.17-39.56-54.19-91.38-140.87-162.76-150.36-8.96-1.26-18.19-1.33-27.16.1-5.09.55-13.94,3.32-18.61-.36-14.73-13.09-9.93-37.83,2.5-50.79,16.43-18.12,27.69-21.78,33.96-47.04l6.63-22.56Z"/>
            <path class="cls-9" d="M365.58,1602.99c6.45-18.62,12.22-33.43,18.52-46.43-9.77,24.68-17.79,44.96-18.52,46.52v-.1Z"/>
            <path class="cls-2" d="M763.27,1542.54c-10.7-2.39-20.92-3.32-30.74-2.83-66.41,2.98-117.14,68.56-190.78,171.87-21.31,29.91-60.94,41.2-90.46,26.73-7.97-3.81-15.15-9.58-21.01-17.3-3.62-4.69-6.74-10.12-9.24-16.27-2.64-6.55-5.52-12.36-8.45-17.59-25.95-45.79-60.3-44.37-50.97-82.34,8.36-33.77,21.21-70.32,44.18-102.48,0-.05.05-.1.05-.15,17.64-24.63,41.15-46.62,73.16-62.85,91.58-46.33,229.15-60.45,246.1-5.67,9.53,30.74,26.68,37.38,42.81,55.81,2,2.25,4.01,4.74,5.96,7.43,12.85,17.79,5.67,49.26-10.6,45.64Z"/>
            <path class="cls-9" d="M767.91,1489.47c-3.71,9.87-9.14,19.21-15.44,27.66-6.01,8.06-12.8,15.44-19.94,22.58-66.41,2.98-117.14,68.56-190.78,171.87-21.31,29.91-60.94,41.2-90.46,26.73-2.49-1.76-4.89-3.62-7.28-5.47-4.69-3.71-9.43-7.57-13.73-11.83-5.33-5.18-10.02-11-13.15-17.74-2.39-5.13-3.81-10.56-4.54-16.13-1.27-9.63-.54-19.65.54-29.37,2.39-20.62,6.26-41.25,14.27-60.4,21.8-52.09,79.61-117.33,146.66-139.72-61.33-10.6-130.48,84.79-166.54,131.99.1-31.67,63.48-115.92,90.8-131.99,42.81-25.12,40.12-25.66,37.58-30.49-6.45-12.31-72.81,32.01-96.86,56.49-27.07,27.61-42.08,46.52-54.88,72.81,6.99-17.54,14.86-37.29,21.65-54.15,0-.05.05-.1.05-.15,17.64-24.63,41.15-46.62,73.16-62.85,91.58-46.33,229.15-60.45,246.1-5.67,9.53,30.74,26.68,37.38,42.81,55.81Z"/>
            <path class="cls-12" d="M727.32,1440.65c6.25,25.29,25.93,32.22,42.34,50.35,12.46,12.94,17.2,37.71,2.5,50.79-4.8,3.7-13.21.91-18.61.36-11.95-1.86-24.32-1.15-36.08,1.35-67.09,16.05-115.18,95.78-153.84,148.91,0,0-10.39,15.17-10.39,15.17-17.07,28.75-49.18,48.71-83.87,44.5-20.85-2.09-39.94-15.22-50.67-33.21-8.28-15.98-14.57-33.02-26.66-46.5-15.94-19.38-47.02-34.62-38.68-65.75,21.51-92.8,73.32-159.96,166.04-188.24,47.14-16.37,185-53.81,208.16,6.36l-.24,15.9ZM725.1,1433.67c-24.13-60.54-157.97-28.39-204.07-9.39-89.1,31.68-133.1,94.88-152.29,185.2-2.09,10.89.72,18,9.12,25.96,8.14,7.84,18.48,16.14,26.89,26.07,10.74,12.12,18.56,26.85,24.86,41.46,1.64,4.57,5.38,9.96,8.11,13.94,8.38,10.29,20.33,17.42,33.77,18.94,24.26,3.44,50.25-8.81,64.84-29.02,3.34-4.51,13.08-17.43,16.6-22.15,41.91-52.73,94.02-131.23,163.82-144.85,12.19-2.07,24.95-2.15,37.14-.01,4.25.5,13.24,3.52,17.23.4,13.96-12.04,10-36.39-1.95-48.79-16.26-18.25-37.99-32.38-44.06-57.76h0Z"/>
            <path class="cls-12" d="M447.01,1199.1c60.47-42.65,145.36-17.45,192.97,33.41,20.9,19.32,38.21,43.9,45.41,71.78,3.96,13.77,6.47,27.76,8.74,41.7.34,2.08-1.07,4.04-3.16,4.38-1.8.29-3.51-.73-4.16-2.35-7.12-18.52-19.3-34.43-38.11-41.63-9.04-3.96-18.81-7.08-28.42-10.66-8.26-3.04-19.94-8-28.42-9.97-37.74-9.65-82.16-.93-108.75,28.72l-1.49-6.19c15.34,5.99,32.56,6.41,49.83,7.75,34.75,3.35,69.71,9.57,100.97,25.9,15.52,8.24,29.77,19.66,39.8,34.38.83,1.18.54,2.82-.65,3.63-.74.51-1.67.57-2.44.25-14.03-5.79-29.01-9.28-44.18-11.12-45.99-5.53-92.4,2.36-137.01,13.92,58.71-17.35,123.77-29.69,183.13-7.6,0,0-3.09,3.88-3.09,3.88-31.15-42.13-88.22-50.73-137.1-55.82-16.96-1.27-34.94-1.43-52.07-7.95-2.5-.89-3.31-4.26-1.49-6.19,36.56-40.91,98.51-44.04,145.87-21.43,33.74,11.43,57.65,21.15,70.7,57.24,0,0-7.32,2.03-7.32,2.03-4.18-27.56-9.72-55.26-24.35-78.58-14.98-22.92-35.73-43.1-57.68-59.34-45.1-31.4-109.62-41.51-157.53-10.14h0Z"/>
            <path class="cls-12" d="M1661.57,1199.14c-48.51-31.75-113.85-21.01-159.13,11.23-21.99,16.82-42.81,37.23-58.1,60.41-15.04,23.79-21.51,51.52-25.64,79.16l-7.32-2.03c7.4-20.06,22.41-38.63,42.4-47.17,19.55-8.45,38.68-16.17,58.79-22.61,20.74-5.49,42.79-5.87,63.66-.82,20.84,4.96,40.61,15.82,55.01,32.07,1.44,1.59,1.3,4.05-.3,5.47-17.04,7.59-36.03,7.18-53.26,8.67-48.86,5.09-105.96,13.68-137.1,55.81,0,0-3.09-3.88-3.09-3.88,59.37-22.09,124.42-9.74,183.13,7.61-58.67-14.86-123.28-25.4-181.19-2.81-1.32.54-2.83-.08-3.37-1.4-.35-.85-.22-1.78.28-2.48,20.31-29.68,55.44-44.21,89.15-52.19,17.06-3.94,34.15-6.55,51.63-8.08,17.28-1.35,34.5-1.76,49.83-7.75l-1.49,6.19c-27.06-30.14-72.49-38.69-110.69-28.21-19.3,6.27-38.98,13.84-57.48,21.73-18.86,8.1-31.49,23.89-38.83,42.75-.79,1.98-3.06,2.93-5.02,2.11-1.66-.7-2.57-2.43-2.3-4.14,4.49-28.32,11.29-57.4,27.57-81.62,8.09-12.11,17.82-22.91,28.11-32.89,47.76-51.9,133.39-78.35,194.74-35.12h0Z"/>
            <path class="cls-12" d="M1446.3,1447.22c23.28-8.97,49.52-5.5,73.11.75,71.73,19.37,132.08,80.18,147.51,153.18-24.47-68.43-80.28-124.25-149.4-146.84-22.88-7.25-47.26-12.65-71.22-7.09h0Z"/>
            <path class="cls-12" d="M410.94,1590.48c20.33-61.83,68.11-112.61,126.52-140.66,11.64-5.76,23.83-10.85,36.73-13.99,25.76-6.44,52.72-2.36,78.11,3.06,4.45.9,4.39,7.57-.11,8.33-93.13,15.23-205.26,65.41-228.21,166.02,17.46-103.9,132.48-158.36,226.62-174.37,0,0-.11,8.33-.11,8.33-24.8-5.5-50.23-9.69-74.56-3.91-12.13,2.8-23.87,7.51-35.31,13.01-58.47,25.98-105.8,74.63-129.68,134.18h0Z"/>
            <path class="cls-12" d="M1453.4,1453.85c73.15-10.22,140.89,42.15,176.09,102.27-45.61-52.8-103.76-99.79-176.09-102.27h0Z"/>
            <path class="cls-12" d="M506.99,1007.33c68.14,23.63,123.01,80.65,148.9,147.51,8.72,22.38,13.99,46.07,15.29,69.82-18.32-93.37-79.35-174.24-164.19-217.34h0Z"/>
            <path class="cls-12" d="M1573.33,1006.73c-76.53,64.35-129.29,152.24-150.24,250,8.54-99.61,66.32-195.68,150.24-250h0Z"/>
          </g>
          <g>
            <path class="cls-2" d="M801.09,1792.79c-20.04-64.56-37.92-136.98-53.07-213.36-17.1-86.5-30.64-178.13-39.63-269.17-4.69-47.84-8.16-95.54-10.16-142.26-4.94-112.35-1.71-218.98,11.68-308.56.39-2.1.93-4.2,1.61-6.26,2.2-.83,4.45-1.61,6.65-2.39,24.78-8.45,50.77-13.44,76.92-14.71,9.77-.49,20.23-.2,29.32,2.93-20.04,72.96-32.5,166.94-37.04,271.22-1.56,35.87-2.2,73.01-1.81,110.88,1.03,114.35,10.85,235.79,29.86,352.29,14.51,89.04,34.4,175.24,59.86,253.14,18.42,56.39-56.2,24.29-74.18-33.77Z"/>
            <path class="cls-10" d="M824.4,839.02c-20.04,72.96-32.5,166.94-37.04,271.22-1.22,3.62-2.44,7.18-3.62,10.8-16.32-34.31-10.21-75.11-21.01-111.57-.88-2.88-2.15-6.11-4.98-7.23-4.59-1.86-8.89,3.03-11.39,7.33-17.93,26.88-29.37,60.74-37.19,91.87-2.79,11.09-3.57,47.65-10.95,66.56-4.94-112.35-1.71-218.98,11.68-308.56.39-2.1.93-4.2,1.61-6.26,2.2-.83,4.45-1.61,6.65-2.39,24.78-8.45,50.77-13.44,76.92-14.71,9.77-.49,20.23-.2,29.32,2.93Z"/>
            <path class="cls-10" d="M815.41,1573.42c-18.37,1.81-36.8,3.62-55.12,5.38-4.06.39-8.21.78-12.27.64-17.1-86.5-30.64-178.13-39.63-269.17,1.86,6.3,4.84,12.95,11,14.9,6.4,2.1,13.1-1.95,18.18-6.35,28.05-24.09,39.78-60.94,47.99-97.69,1.03,114.35,10.85,235.79,29.86,352.29Z"/>
            <path class="cls-12" d="M841.56,786.7c-42.31-.84-110.01,24.88-127.28,66.04-1.98,4.54-3.46,20.66-4.03,25.94-1.24,11.83-2.81,23.61-3.78,35.46-17.41,237.44,10.17,476.71,58.8,709.12,10.56,46.33,21.64,92.61,35.29,138.12,6.34,21.35,11.4,44.92,27.08,61.6,9.81,11.22,23.41,23.21,37.93,24.58,1.77,0,2.7-.4,2.99-.67,2.57-4.31.87-10.52-.86-16.69,0,0-5.07-17.12-5.07-17.12-72.23-240.72-93.43-495.87-76.9-746.06,8.02-94.79,21.33-191.18,55.83-280.31-30.67,90.53-42.51,185.93-47.5,280.87-10.32,201.76,5.93,405.4,47.91,602.95,9.44,45,22.63,93.69,36.37,137.63,2.92,11.29,9.63,25.43,7.76,38.49-.59,4.06-2.29,9.18-6.61,12.89-4.27,3.71-9.52,4.77-13.65,4.8-21.68-1.05-37.75-15.63-51.15-30.28-12.55-14.1-20.7-32.66-25.12-50.75-8.58-28.61-16.35-57.81-23.63-86.69-55.68-232.35-83.78-472.63-71.85-711.59,1.96-35.83,5.62-71.58,10.75-107.09,0,0,2.47-17.77,2.47-17.77,1.15-6.03,3.62-12.07,6.69-17.43,25.31-37.29,83.98-57.83,127.54-56.02h0Z"/>
          </g>
          <g>
            <path class="cls-2" d="M1412.54,1064.55c.1,44.57-1.37,90.65-4.11,137.52-6.84,115.33-21.84,235.21-42.91,347.6-16.13,85.86-35.77,167.38-58.06,239.16-17.98,58.06-92.66,90.21-74.18,33.82,27.17-83.08,47.99-175.54,62.65-270.88,12.46-80.44,20.57-162.98,24.43-243.61,2.93-60.45,3.52-119.83,1.76-176.51-2.64-86.64-10.65-166.94-23.85-235.06,13-10.7,31.52-18.42,53.36-25.95,15.15-5.18,32.11-8.26,48.14-7.28,8.6,60.65,12.66,128.87,12.75,201.19Z"/>
            <path class="cls-10" d="M1412.54,1064.55c-5.57-16.03-10.65-32.5-21.21-45.45-3.32-4.06-7.67-7.92-12.95-8.11-3.42-.1-6.69,1.42-9.63,3.13-36.07,21.31-40.02,74.08-46.62,117.53-2.64-86.64-10.65-166.94-23.85-235.06,13-10.7,31.52-18.42,53.36-25.95,15.15-5.18,32.11-8.26,48.14-7.28,8.6,60.65,12.66,128.87,12.75,201.19Z"/>
            <path class="cls-10" d="M1408.43,1202.07c-6.84,115.33-21.84,235.21-42.91,347.6-2.15.64-4.3,1.22-6.45,1.76-20.38,5.28-44.71,7.87-63.14.34,12.46-80.44,20.57-162.98,24.43-243.61,3.42,3.71,7.62,6.16,12.71,6.94,5.47.83,10.85-1.71,15.49-4.64,35.53-22.72,43.64-68.32,59.86-108.39Z"/>
            <path class="cls-12" d="M1266.99,782.77c43.6-1.89,102.29,18.87,127.54,56.02,3.07,5.38,5.55,11.36,6.69,17.43,0,0,2.47,17.77,2.47,17.77,5.13,35.51,8.79,71.27,10.75,107.09,11.93,238.96-16.16,479.24-71.84,711.59-7.28,28.86-15.05,58.13-23.63,86.69-4.42,18.06-12.57,36.66-25.12,50.75-13.4,14.69-29.46,29.14-51.15,30.28-21.89-.25-23.44-23.71-17.68-39.02,0,0,5.18-17.16,5.18-17.16,13.76-44,26.93-92.61,36.37-137.63,41.99-197.55,58.23-401.18,47.92-602.95-4.99-94.94-16.83-190.34-47.5-280.87,34.5,89.12,47.82,185.52,55.83,280.31,16.53,250.19-4.67,505.35-76.9,746.06-1.41,6.89-10.41,27.53-5.93,33.81.29.27,1.22.68,2.99.67,14.54-1.42,28.12-13.4,37.93-24.58,15.68-16.71,20.75-40.15,27.08-61.6,13.65-45.51,24.74-91.78,35.29-138.12,48.63-232.4,76.21-471.68,58.8-709.12-.98-11.85-2.54-23.63-3.79-35.46l-1.98-17.74c-.94-5.72-2.99-10.83-5.66-15.94-23.3-36.37-81.68-58.74-123.68-58.31h0Z"/>
          </g>
          <g>
            <path class="cls-2" d="M1553.48,878.56c-32.4,21.6-105.17,75.21-191.27,42.66-36.94-13.98-102.23-4.69-33.28,20.92,46.03,17.15-218.59,146.02-274.64,274.4-.49-4.3-.88-8.5-1.17-12.56-11.88-163.17,131.51-176.27,177.1-306.94,28.25-80.88-16.66-69.49-11.53-204.76-.88-11.83,35.43,26.34,70.86,51.07,62.55,43.69,167.77,132.24,262.57,135.17.44.05.93.05,1.37.05Z"/>
            <path class="cls-9" d="M1552.11,878.51c-31.18,18.52-107.71,37.34-171.19,7.67-64.56-30.1-77.99-112.25-105.46-93.73-56.25,37.92,52.83,80-45.4,176.12-26.54,25.9-76.58,44.71-101.21,72.42-35.43,39.88-38.85,98.23-61.53,146.51-3.08,6.6-7.92,13.78-14.22,16.47-11.88-163.17,131.51-176.27,177.1-306.94,28.25-80.88-16.66-69.49-11.53-204.76-.88-11.83,35.43,26.34,70.86,51.07,62.55,43.69,167.77,132.24,262.57,135.17Z"/>
            <path class="cls-12" d="M1218.65,692.26c-.21,36.63,2.14,73.44,12.82,108.55,7.67,23.22,15.13,48.63,9.04,73.34-2.35,11.94-6.34,24.53-10.66,35.84-50.96,124.35-189.33,144.62-167.84,305.63,0,0-14.87-2.22-14.87-2.22,25.6-56.02,72.04-96.91,117.72-135.72,45.18-37.98,95.1-71.14,140.71-107.9,7.21-6.28,15.89-13.19,20.17-21.02.32-.74.06-.89.37.31.55,1.29,1.03,1.36.4,1.04-.3-.15-1.46-.65-1.81-.76-12.14-4.96-44.66-16.4-30.83-34.82,4.82-5.12,12.34-6.36,17.75-7.19,19.79-2.34,39.52,1.19,58.06,8.05,16.3,5.89,34.43,8.7,51.74,8.41,47.53-1.01,89.55-23.96,128.62-50.41,0,0,3.31,11.39,3.31,11.39-67.63-3.97-126.52-40.04-180.6-77.14-39.56-29.16-79.62-57.39-116.98-89.15,0,0-18.37-16.18-18.37-16.18-5.5-4.27-10.54-10.12-17.28-12.18-1.17-.18-1.54,1.18-1.45,2.13-.14-.91.18-2.4,1.45-2.28,6.93,1.69,12.29,7.41,18.04,11.41,0,0,19.15,15.27,19.15,15.27,38.46,30.12,79.57,57.11,119.83,84.53,53.37,34.16,112.04,69.01,176.5,71.17,5.84-.02,8.3,8.3,3.31,11.39-24.09,16.91-49.92,33.53-78.7,43.95-14.33,5.34-29.5,8.67-44.84,10.3-22.89,2.5-46.97-.3-68.76-7.78-18.07-6.21-40.13-10.77-58.55-4.69-.14.12-.53.35-.12.04.5-.67.71-1.23.91-2.18.1-2.36-.73-2.25.1-1.56,5.09,4.75,14.22,8.37,21.1,11.14,32.35,10.8,2.55,37.96-11.73,49.58-46.26,37.72-95.15,70.15-140.81,108.05-43.76,36.84-89.47,76.99-114.1,129.04-2.78,7.14-14.31,5.67-14.86-2.22-2.64-24.91-2.49-50.53,2.86-75.49,17.46-90.15,109.69-131.26,155.67-203.48,17.97-29.92,34.55-65.68,30.33-101.03-1.65-11.76-5.46-23.44-8.44-35.38-9.62-35.7-10.43-73.16-8.33-109.78h0Z"/>
            <path class="cls-2" d="M1075.59,1257.88c-.29,2.79-.64,5.52-1.03,8.36-56-128.38-341.01-306.94-294.92-324.1,68.91-25.61,3.62-34.89-33.28-20.92-86.11,32.55-158.87-21.06-191.27-42.66,4.3-.1,8.6-.39,12.95-.83,91.68-9.24,190.98-92.51,250.99-134.39,35.43-24.73,71.74-62.89,70.86-51.07,9.63,156.48-39.78,123.88-11.53,204.76,46.03,131.95,216.44,180.72,197.23,360.85Z"/>
            <path class="cls-9" d="M1075.59,1257.88c-8.36-22.53-6.69-48.62-13.34-72.13-12.17-43.4-33.52-57.03-65.68-88.6-29.61-29.03-34.11-90.41-87.82-134.1-109.03-88.7-45.84-148.95-71.74-159.26-28.25-11.34-60.21,32.89-81.37,52.29-57.81,53.02-116.41,48.53-187.61,21.65,91.68-9.24,190.98-92.51,250.99-134.39,35.43-24.73,71.74-62.89,70.86-51.07,9.63,156.48-39.78,123.88-11.53,204.76,46.03,131.95,216.44,180.72,197.23,360.85Z"/>
            <path class="cls-12" d="M889.9,692.26c3.09,39.87,4.68,81.1-6.68,120.04-3.62,13.03-9.43,25.37-10.35,38.02-.04,38.99,21.25,76.16,43.61,107.1,55.79,73.42,144.66,130.46,163.57,227.54,5.57,27.16,5.79,55.16,2.34,82.36-.94,7.62-11.89,9.47-14.97,2.23-6.13-13.77-14.3-26.87-23.32-39.43-27.47-37.92-61-70.92-95.29-102.92-46.1-42.81-94.95-82.56-141.93-125.62-11.62-11.07-23.29-21.76-33.53-35.82-5.96-7.59-11.87-23.12.58-29.92,9.65-4.48,19.72-7.11,27.41-13.51.95-.67.98-1.73.57.22-.13,1,.41,2.42.77,2.77-5.28-2.42-16.33-3.11-24.47-2.55-16.01.38-28.6,5.8-44.37,10.47-64.64,18.9-131.26-11.98-182.06-49.7-4.79-2.98-2.53-11.03,3.17-10.93,64.53-1.89,123.2-37.19,176.61-71.24,40.27-27.43,81.29-54.54,119.77-84.65,0,0,19.12-15.3,19.12-15.3,5.75-4.03,11.09-9.71,18.02-11.43,1.26-.1,1.61,1.36,1.44,2.28.12-.96-.28-2.3-1.44-2.14-6.76,2.03-11.81,7.92-17.31,12.16,0,0-18.4,16.16-18.4,16.16-37.39,31.73-77.47,59.94-117.06,89.04-53.96,37.08-112.91,73.43-180.49,77.05,0,0,3.17-10.93,3.17-10.93,59.15,41.43,123.55,67.03,193.98,37.61,14.85-4.11,65.39-11.76,65.53,12.7-1.78,8.91-6.09,10.63-11.39,14.65-8.1,5.13-16.36,8.26-24.42,11.45-.09.06.05,0,.31-.35.64-.81.35-1.59.51-.73,6.84,15.49,22.54,27.81,35.27,40.5,70.22,63.66,146.04,122.12,209.12,193.58,20.96,24.11,41.08,49.7,54.51,80.11l-15.03,2.09c21.12-143.38-82.47-202.06-158-302.13-23-33.07-43.62-71.86-42-113.33,1.62-14.18,8.02-26.29,11.9-38.84,12.37-38.12,12.37-78.83,11.23-118.63h0Z"/>
          </g>
          <g>
            <path class="cls-9" d="M1014.74,1361.98c5.77,2.29,12.6.93,17.69-2.63,5.09-3.56,8.57-9.07,10.65-14.93.69-1.94,1.83-4.35,3.87-4.18.7.06,1.34.45,1.88.91,2.86,2.46,3.3,6.65,3.55,10.42.32,4.94.64,9.87.95,14.81.41,6.32.5,13.51-4.04,17.92-4.82,4.68-12.65,4-19.05,1.98-14.02-4.43-33.76-19.43-27.58-36.36,3.04,4.69,6.57,9.88,12.08,12.06Z"/>
            <path class="cls-1" d="M1023.27,1338.76c3.44-3.36,8.93-10.52,3.03-21.05-.78-1.39,9.82,7.7,11.35,11.25.22.5,3.75,5.88,4.19,8.76,2.55,16.68-15.29,23.54-20.24,21.98-10.84-3.42-22.99-10.17-18.21-23.26,2.35,3.63,14.12,7.93,19.87,2.32Z"/>
            <path class="cls-12" d="M1012.33,1319.85c-19.79,12.56-2.01,44.37,18.38,33.41,20.44-9.93,1.4-44.36-18.38-33.41h0ZM1012.33,1319.85c14.38-8.11,33.24,2.93,38.98,17.57,4.55,11.36-1.76,25.37-12.41,30.77-31.69,16.51-54.4-30.29-26.57-48.33h0Z"/>
          </g>
          <g>
            <path class="cls-10" d="M1423.22,1748.94c9.15,6.13-.82,26.1,3.34,45.53,4.24,19.8.41,35.35-7.96,45.96-39.6,50.21-196.58,79.91-363.59,79.91-230.78,0-343.87-51.22-359.8-77.78-7.57-12.67-.96-21.9-2.12-38.18-1.29-18.1-9.52-42.75-1.23-44.67,1.26,2.34,2.64,4.75,4.15,7.21,16.83,28.01,229.3,99.29,339.9,91.24,3.49-.24,6.79-.6,9.98-.96,2.88-.36,5.65-.72,8.41-1.2,106.45,17.79,292.77-29.81,356.25-91.9,4.93-4.81,9.14-9.86,12.68-15.15Z"/>
            <path class="cls-12" d="M1423.22,1748.94c7.82,6.75,2.89,19.06,3.24,27.99-1.09,9.96,2.13,19.04,3.07,28.89,7.03,59.48-89.85,83.83-134.25,95.55-76.43,17.71-154.88,24.4-233.16,25.87-78.22.67-156.94-3.59-234.21-19.47-38.51-8.29-76.95-18.47-112.8-38.15-8.91-5.16-17.7-10.51-25.46-20.41-7.78-8.53-7.18-24.01-5.34-33.81,1.18-9.23-.36-17.46-1.9-26.7-1.2-9.71-4.87-20.47-.69-30.43,2.75-6.53,13.81-10.58,17.52-2.55,1.07,1.62,3.14,5.82,4.16,7.1,2.2,2.85,5.3,4.96,8.89,7.36,19.59,12.29,41.8,20.87,63.6,29.16,59.4,21.64,121.2,38.62,183.79,47.78,31.25,4.42,63.15,7.25,93.73,2.73,65.01,9.74,132.32.93,196.19-14.19,31.92-7.72,63.43-17.61,93.52-30.9,29.17-13.81,60.46-29.3,80.11-55.82h0ZM1423.22,1748.94c-34.16,49.33-115.55,77.88-171.66,94.24-64.39,17.13-131.45,27.67-198.29,18.92-21.6,5.3-66.78,3.28-95.55-.68-64.07-8.78-126.7-24.85-187.52-46.69-22.96-8.64-45.93-17.4-67.06-30.6-5.5-3.43-12.3-8.73-15.53-15l-3.15-5.46,9.28,4.19c1.56-.06,2.86-1.88,2.96-2.09.12-.21.08-.4.07-.08-.47,11.39,3.51,23.35,4.48,35.19,1.42,9.15-1.16,21.26-1.19,29.49,4.26,30.87,102.06,55.19,131.25,61.31,75.45,15.93,153.22,21.14,230.73,21.68,77.43.23,155.41-4.71,231.28-20.58,43.03-10.34,138.16-29.74,133.44-86.79-2.27-14.8-2.64-28.84-.01-43.68.41-4.62.55-10.31-3.55-13.37h0Z"/>
            <path class="cls-2" d="M1423.22,1748.94c9.15,6.13-.82,26.1,3.34,45.53,4.24,19.8.41,35.35-7.96,45.96-39.6,50.21-196.58,79.91-363.59,79.91-131.98,0-227.41-12.54-286.24-31.85-44.04-14.46-55.13-45.69-55.17-62.02-.06-23.34,18.49-34.48,59.9-19.25,76.27,28.05,190.73,56.15,262.4,50.93,3.49-.24,6.79-.6,9.98-.96,2.88-.36,5.65-.72,8.41-1.2,106.45,17.79,292.77-29.81,356.25-91.9,4.93-4.81,9.14-9.86,12.68-15.15Z"/>
            <path class="cls-10" d="M1426.95,1796.39c-4.16-19.44,5.8-39.41-3.34-45.53-3.55,5.29-7.75,10.34-12.68,15.15-63.47,62.09-249.8,109.69-356.25,91.9-2.76.48-5.53.84-8.41,1.2-3.19.36-6.49.72-9.98.96-68.82,5.01-176.99-20.7-253.02-47.59-22.25,2.42-44.92,12.73-49.7,31.95-2.01,8.11-1.73,16.84.13,25.56,8.31,7.97,19.76,15.27,35.45,20.41,17.8,5.84,38.98,11.05,63.48,15.49,30.96-19.38,67.89-31.3,102.58-16.66,17.01,7.18,35.39,17.96,50.5,31.73,1.01.04,1.97.09,2.98.12-10.16-14.76-7.89-40.8,14.21-49.76,18.55-7.52,41.09-3.57,60.67-3.57,23.1,0,155.01-8.67,155.01,14.49,0,29.99-145.51,33.78-147.37,9.63-40.41.11-64.8,10.06-63.59,28.76.23,3.52,196.53-9.42,195.81-6.54,104.38-12.04,188.14-36.97,215.56-71.74,8.37-10.62,12.2-26.16,7.96-45.96Z"/>
            <path class="cls-12" d="M1423.22,1748.94c2.75,1.75,3.86,5.14,4.14,8.27.65,9.46-1.6,19.02-.85,28.41,1.44,12.34,5.39,25.39,1.98,38.15-6.11,26.23-32.77,40.55-55.02,51.64-139.01,60.92-378.36,61.02-528.56,39.12-25.28-4.1-50.51-9.18-75.29-16.96-12.6-3.83-25.58-9.56-36.49-18.39-41.32-31.38-39.67-101.54,26.26-84.88,71.7,23.89,144.31,47.28,219.82,55.08,24.81,2.44,49.98,3.95,74.1.21,32.5,4.74,65.99,5.37,99.29,2.19,78.95-7.31,220.38-38.61,270.62-102.83h0ZM1423.22,1748.94c-18.52,27.83-49.25,44.82-78.28,59.76-60.02,28.8-125.2,45.94-191.27,53.67-33.13,3.61-66.79,4.84-100.44,0-39.44,8.43-104.57-.48-151.35-10.3-49.85-9.59-98.12-25.98-146.22-41.58-25.01-6.21-40,2.15-31.18,28.96,7.64,21.87,28.22,35.57,50.25,42.06,96.44,28.29,198.79,30.73,298.79,31.56,75.51-.38,151.49-5.57,225.38-21.68,36.32-8.61,73.81-18.09,104.6-39.82,18.92-12.36,26.99-34.34,22.01-56.26-2.73-12.72,1.35-25.42,1.39-38.07-.13-3.07-1.01-6.4-3.66-8.31h0Z"/>
            <path class="cls-2" d="M817.92,1899.1c2.95,12.43-39.86,6.02-45.77-5.31-11.08-21.23-17.2-65.07-2.89-82.63,6.9-8.47,54.05-9.24,52.67,5.83-2.04,22.32-12.88,44.72-4.01,82.1Z"/>
            <path class="cls-10" d="M798.12,1875.13c5.47,4.64,11.42,8.6,17.6,12.22-4.35-30.53,4.4-50.49,6.22-70.36,1.38-15.07-45.77-14.29-52.67-5.83-4.36,5.35-6.8,13.15-7.81,22,7.64,15.83,27.79,34.44,36.66,41.97Z"/>
            <path class="cls-12" d="M817.92,1899.1c1.17,10.94-24.83,6.46-31.31,4.88-6.16-1.84-12.31-3.04-16.6-8.82-3.33-5.26-5.91-10.72-8.16-16.4-8.04-21.6-13.71-48.74-1.19-70.01,1.21-1.81,2.94-4.4,4.75-5.53,13.02-7.78,26.33-6.64,40.4-4.67,8.84,1.71,22.25,6.4,21.7,18.15-.72,5.01-1.96,9.01-3.24,13.68-7.54,22.32-12.36,45.5-6.34,68.72h0ZM817.92,1899.1c-5.96-22.82-4.88-47.16-2.07-70.31.32-3.97.69-8.61.5-12.38-.13-.31-.25-.17-.56-.41-7.68-4.13-19.04-3.22-27.79-2.33-3.38.17-10.83,2.1-12.29,3.06.25-.37,0,0-.06.09l-.84,1.23c-4.6,7.37-5.92,16.02-6.57,24.91-1.03,16.53.28,34.13,6.23,49.74,2.13,4.25,8.23,7.24,12.84,9.01,6.29,2.53,31.15,8.78,30.61-2.63h0Z"/>
            <path class="cls-2" d="M1290.63,1899.1c-2.95,12.43,39.86,6.02,45.77-5.31,11.08-21.23,17.2-65.07,2.89-82.63-6.9-8.47-54.05-9.24-52.67,5.83,2.04,22.32,12.88,44.72,4.01,82.1Z"/>
            <path class="cls-10" d="M1293.08,1885.76c21.05-13.02,40.31-29.34,54.4-47.78-.59-10.81-3.06-20.52-8.2-26.82-6.9-8.47-54.05-9.24-52.67,5.83,1.79,19.53,10.31,39.12,6.46,68.77Z"/>
            <path class="cls-12" d="M1290.63,1899.1c-.53,11.45,24.36,5.11,30.61,2.63,4.61-1.76,10.72-4.76,12.84-9.01,5.95-15.61,7.26-33.21,6.23-49.74-.7-9.37-2.09-18.57-7.41-26.14-.73-.84-8.86-2.96-12.35-3.16-8.73-.9-20.12-1.81-27.79,2.32-.3.24-.43.1-.56.41-.19,3.78.18,8.4.5,12.38,2.81,23.15,3.88,47.49-2.07,70.31h0ZM1290.63,1899.1c6.02-23.23,1.2-46.4-6.34-68.72-1.28-4.67-2.52-8.66-3.24-13.68-.55-11.76,12.86-16.42,21.7-18.15,14.08-1.98,27.37-3.11,40.4,4.67,1.81,1.14,3.57,3.7,4.75,5.53,12.52,21.28,6.84,48.41-1.19,70.01-2.25,5.68-4.83,11.14-8.16,16.4-4.29,5.78-10.44,6.99-16.6,8.82-6.52,1.63-32.49,5.99-31.31-4.88h0Z"/>
            <path class="cls-12" d="M1071.3,1891.99c.19,15.17-84.37,10.11-78.48-8.14,2.88-14.65,26.93-5.39,40.82-6.04,13.88,1.16,38.67-.98,37.66,14.18Z"/>
          </g>
          <g>
            <g>
              <path class="cls-2" d="M805.74,1840.69c-7.28-7.43-12.56-16.62-14.17-27.07-.29-1.76-.78-4.2-1.37-7.43-1.81-9.48-4.74-25.66-7.13-51.61-.34-3.81-.44-7.33-.2-10.6,1.37-22.82,15.93-32.4,35.77-32.4,15.44,0,29.03,9.72,34.11,23.99.29.78.54,1.56.78,2.39,4.15,14.76,11.88,37.14,26.44,81.66,17.4,53.17-44.81,51.31-74.23,21.06Z"/>
              <path class="cls-1" d="M805.74,1840.69c2.59-1.37,6.16-1.76,9.19-1.76,12.95.1,25.9.2,38.85.29,6.45,0,14.12-.59,17.45-6.11-7.62-19.94-27.81-34.4-49.11-35.19-13.93-.54-21.4,11.88-31.91,8.26-1.81-9.48-4.74-25.66-7.13-51.61-.34-3.81-.44-7.33-.2-10.6,3.18-2.83,6.74-5.23,10.46-7.18,18.23-9.48,40.41-9.14,59.42-1.22.29.78.54,1.56.78,2.39,4.15,14.76,11.88,37.14,26.44,81.66,17.4,53.17-44.81,51.31-74.23,21.06Z"/>
              <path class="cls-12" d="M818.66,1711.59c-32.99-.04-38.43,26.11-32,53.31,2.79,16.61,6.75,32.66,11.02,48.98,3.76,14.41,15.43,25.42,28.53,31.99,20.11,10.79,55.78,13.93,48.83-19.05-1.63-7.79-7.06-28.26-8.99-36.31-4.05-16.37-8.17-32.69-12.6-48.9-2.79-16.71-17.51-30.29-34.79-30.02h0ZM818.66,1711.59c17.4-.34,32.82,12.83,37.09,29.37,8.57,22.77,18.79,47.71,27.85,70.42,30.78,68.85-53.45,74.43-86.44,30.68-12.03-14.24-12.02-33.54-13.93-51.24-2.01-32.27-11.5-79.41,35.44-79.23h0Z"/>
            </g>
            <path class="cls-2" d="M1325.5,1754.58c-3.23,34.7-7.38,51.95-8.5,59.03-7.82,50.68-101.11,70.47-90.6,14.47.49-2.64,1.22-5.47,2.2-8.45,2.05-6.21,3.91-11.97,5.67-17.35,10.95-33.28,17.2-51.61,20.77-64.31,4.4-15.59,18.62-26.39,34.84-26.39,22.72,0,38.46,12.51,35.63,43Z"/>
            <path class="cls-1" d="M1325.5,1754.58c-3.23,34.7-7.38,51.95-8.5,59.03-7.82,50.68-101.11,70.47-90.6,14.47,2.1-5.03,5.38-10.12,10.02-15.15-2.49,24.73,44.47,20.08,64.26-7.77,18.28-25.8,19.84-60.6-10.07-56.44-27.95,3.86-25.9,52-54.2,64.21-.83-3.67-1.51-7.23-2.15-10.65,10.95-33.28,17.2-51.61,20.77-64.31,4.4-15.59,18.62-26.39,34.84-26.39,22.72,0,38.46,12.51,35.63,43Z"/>
            <path class="cls-12" d="M1289.89,1711.59c46.94-.16,37.46,46.93,35.44,79.23-1.91,17.69-1.9,37.01-13.93,51.24-32.96,43.72-117.22,38.21-86.44-30.68,9.09-22.75,19.27-47.61,27.85-70.42,4.27-16.53,19.69-29.72,37.09-29.37h0ZM1289.89,1711.59c-17.28-.26-32,13.3-34.79,30.02-4.43,16.21-8.54,32.53-12.6,48.9-1.95,8.13-7.34,28.4-8.99,36.31-6.94,32.95,28.71,29.86,48.84,19.05,13.1-6.56,24.76-17.58,28.53-31.99,4.27-16.32,8.23-32.37,11.02-48.98,6.42-27.13,1-53.38-32-53.31h0Z"/>
          </g>
          <g>
            <path class="cls-2" d="M992.9,1838.95c-11.11,8.2-11.67,65.48-8.42,90.94,2.14,16.81,143.88,14.37,144.19-9.55.12-9.02-24.13-2.86-50.91,0-31.93,3.4-63.81,2.35-65.81-.62-1.65-2.45-1.62-59.86-.11-61.21,1.19-1.06,115.8,8.14,116.3-8.68.53-18.06-129.4-15.19-135.24-10.89Z"/>
            <path class="cls-1" d="M1077.76,1920.35c-31.93,3.4-63.81,2.35-65.81-.62-1.65-2.45-1.62-59.86-.11-61.21,1.19-1.06,115.8,8.14,116.3-8.68.05-1.76-1.17-3.32-3.37-4.7-13.04,1.84-26.2,2.59-39.72,2.17-19.9-.62-46.25-2.56-72.49-3.73-8.5-.38-14.89,3.54-14.89,15.73,0,11.55-5.15,16.2-13.56,26.45,8.46,20.83,13.6,30.69,5.45,48.79,25.48,11.38,138.82,7.18,139.1-14.21.12-9.02-24.13-2.86-50.91,0Z"/>
            <path class="cls-12" d="M992.9,1838.95c-5.08,5.21-6.07,12.83-7.38,19.69-3.09,21.15-2.65,42.78-.59,63.98.63,2.86-.14,7.23,2.35,8.98,25.69,12.05,107.37,4.81,132.04-9.18,1.12-.73,1.97-1.55,2.31-2.06.38-.43.01-.71-.01.35.03.72.81,2.2,1.57,2.48-7.38-.83-15.49,1.05-23.73,2.2-25.07,4.24-50.83,6.6-76.37,5.05-5.09-.55-8.57-.43-14.17-2.71-4.33-1.99-5.83-6.95-5.85-11.28-.45-3.83-.29-12.66-.48-16.58-.15-10.45.37-22.03.84-32.53.52-6.17-.16-15.85,8.57-16.26,25.54,1.34,61.49,4.75,86.7,3.89,8.82-.85,19.56.23,26.46-5.23-12.67-15.48-110.96-15.84-132.25-10.8h0ZM992.9,1838.95c13.75-3.51,28.44-2.77,42.6-3.5,28.86-.06,57.47-1.99,85.97,5.28,4.22,1.67,9.03,3.25,9.65,9.18-1.68,20.94-99.8,15.04-117.79,15.87,0,0-.4.02-.4.02h-.19c1.94.12,4.57-1.87,5.44-3.28.57-.75.77-2.41.68-1.75-.71,10.38.02,28.29.13,38.85.27,4.53.24,13.21.89,17.56.06.47-.07-.59-.25-.9-.19-.5-.46-.85-.83-1.34-.49-.98-1.75-1.86-2.51-2.26-.28-.06,1.82.37,3.11.5,33.86,3.42,66.42-3.22,100.4-4.87,12.68-.36,20.91,9.94,12.4,20.69-17.98,20.92-124.53,19.36-146.77,4.88-3.33-2.64-2.36-7.38-2.88-11.07-1.07-21.46-.58-43.01,2.63-64.23,1.41-6.85,2.53-14.5,7.7-19.64h0Z"/>
            <path class="cls-2" d="M1071.3,1891.99c.19,15.17-84.37,10.11-78.48-8.14,2.88-14.65,26.93-5.39,40.82-6.04,13.88,1.16,38.67-.98,37.66,14.18Z"/>
            <path class="cls-1" d="M1018.82,1889.97c-8.82-.69-17.22-4.6-25.49-7.75-.19.52-.39,1.03-.51,1.63-5.88,18.25,78.67,23.31,78.48,8.14.25-3.79-1.1-6.49-3.5-8.44-15.65,4.98-32.65,7.69-48.98,6.42Z"/>
            <path class="cls-12" d="M1071.3,1891.99c.09,1.95-1.42,3.5-2.95,4.45-4.78,3-10.48,3.98-15.95,5.18-19.7,3-50.22,9-65.52-7.66-4.26-6.11-2.92-11.62-.8-16.48,4.43-9.81,17.61-11.02,25.84-9.11,8.22,1.43,15.24,4.4,22.08,5.17,10.79,3.7,37.71,2.42,37.3,18.45h0ZM1071.3,1891.99c-.42-17.53-29.35-8.87-37.83-11.84-13.09-4.59-35.84-7.43-35.8,3.54.05,12.54,68.41,25.01,73.62,8.3h0Z"/>
          </g>
          <g>
            <path class="cls-2" d="M1392.5,1643.4c-7.04,17.84-42.27,37.04-95.2,55.27-197.28,67.83-640.33,121.68-782.78,39.05-29.08-16.86-68.51-5.52-74.23-44.52-6.3-42.96,12.71-68.12,23.31-98.32,29.71-84.59,132.34-171.68,358.35-107.51,49.55,14.03,286.96,63.82,286.96,63.82,10.41,2.79,28.05,6.6,49.55,11.24,83.03,17.94,224.06,48.58,234.03,80.98Z"/>
            <path class="cls-13" d="M1297.31,1698.67c-197.28,67.83-640.33,121.68-782.78,39.05-29.08-16.86-68.51-5.52-74.23-44.52-6.3-42.96,12.71-68.12,23.31-98.32,29.71-84.59,132.34-171.68,358.35-107.51,49.55,14.03,286.96,63.82,286.96,63.82,10.41,2.79,28.05,6.6,49.55,11.24,3.81,8.5,4.98,17.54.78,25.75-2.74,5.38-24.14,24.53-58.64,23.07-79.61-3.27-350.34-140.2-466.65-119.19-53.02,9.58-108.1,43.74-105.31,97.59,3.81,75.11,362.56,49.6,437.67,43.64,80.39-6.4,223.92-16.52,292.33,15.05,20.67,9.53,42.27,28.69,38.66,50.33Z"/>
            <path class="cls-12" d="M1392.5,1643.4c-16.58,32.17-80.39,51.51-113.47,63.62-126.26,40.57-257.95,61.63-389.82,73.84-110.08,8.26-223.53,13.19-331.17-16.37-21.54-5.29-40.35-17.38-60.92-25.35-9.67-3.12-20.53-4.46-32.04-7.91-29.61-7.65-35.76-33.59-34.28-61.11,1.01-26.13,13.45-49.77,23.02-72.98,23.63-75.12,96.57-126.07,172.58-135.48,90.06-14.66,176.5,14.25,262.76,35.21,73.27,17.41,152.02,34.4,225.64,51.17,53.54,14.91,258.7,51.07,277.69,95.35h0ZM1392.5,1643.4c-20.26-42.78-227.09-72.81-279.83-86.61-73.79-15.42-152.89-31.04-226.41-47.14-84.14-18.42-170.54-47.61-257.42-32.68-71.64,9.59-137.68,56.1-159.33,126.22-8.81,22.43-20.68,43.83-21.91,67.86-.56,18.68.06,39.26,22.35,44.46,9.56,3,20.72,4.48,32.04,8.12,20.53,7.49,39.05,20.33,60.71,25.68,105.27,29.7,217.18,24.4,325.51,18.53,94.13-4.79,459.24-50.35,504.29-124.46h0Z"/>
            <path class="cls-12" d="M579.63,1644.37c140.38,18.18,283.24,22.88,424.13,7.9,0,0,28.17-3.68,28.17-3.68-143.03,31.34-309.34,26.21-452.29-4.22h0Z"/>
            <path class="cls-12" d="M648.35,1696.61c117.8-21.66,243.98-4.46,362.97-7.07-120.32,14.31-242.49-3.14-362.97,7.07h0Z"/>
          </g>
          <g>
            <g>
              <path class="cls-2" d="M1638.17,1711.58c-10.9,37.87-45.59,26.93-74.92,43.35-179.49,100.28-568.73-234.57-869.08-294.24-4.79-.98-9.58-1.86-14.32-2.69,13.24-40.61,59.42-50.63,111.57-55.42,125.69-11.68,418.27,33.23,469.58,37.82,37.48,3.32,71.2,7.13,101.55,11.48,136.39,19.65,204.86,51.26,240.97,109.07,23.41,37.48,54.78,80.83,34.65,150.61Z"/>
              <path class="cls-13" d="M1638.17,1711.58c-10.9,37.87-45.59,26.93-74.92,43.35-179.49,100.28-568.73-234.57-869.08-294.24,33.72-58.06,149.98-39.93,200.85-24.43,75.8,23.16,143.58,67.15,217.86,94.81,99.74,37.09,210.62,43.59,313.98,18.37,10.02-2.44,21.01-6.01,25.85-15.1,6.21-11.78-1.81-26.73-12.9-34.06-11.14-7.33-24.68-9.72-36.99-14.81-15.44-6.45-29.03-17.3-38.66-31.03-.54-.78-1.12-1.66-1.61-2.54,136.39,19.65,204.86,51.26,240.97,109.07,23.41,37.48,54.78,80.83,34.65,150.61Z"/>
              <path class="cls-12" d="M679.86,1457.98c180.47,31.25,340.13,129.35,503.2,207.03,81.1,38.49,163.66,79.52,252.16,96.1,43.68,7.55,89.37,7.52,127.74-15.18,11.47-5.67,23.56-7.91,34.3-10.43,10.83-2.45,20.18-5.64,25.73-12.2,11.67-16.37,12.88-39.79,13.02-59.43-1.47-43.36-27.8-83.41-53.11-117.26-58.47-65.74-162.15-78.01-245.26-90.63-135.59-14.14-270.25-37.01-406.1-47.64-62.57-3.36-228.57-23.82-251.68,49.64h0ZM679.86,1457.98c18.78-63.06,130.31-59.19,183.92-60.15,136.63,1.78,272.08,22.77,407.65,36.41,90.65,9.5,184.93,16.93,267.99,58.32,20.72,10.96,40.23,25.3,55.85,43.46,15.38,18.51,26.4,37.93,38.13,58.65,17.17,30.97,24.43,69.26,16.46,104.44-2.7,12.35-5.44,25.15-14.4,35.18-16.38,18.93-45.44,16.22-65.38,26.22-31.04,17.72-67.71,23-102.9,20.22-103.76-9.86-198.1-58.83-289.93-104.07-162.17-80.51-318.43-180.34-497.39-218.69h0Z"/>
              <path class="cls-12" d="M953.87,1496.95c66.95,19.39,140.77,38.39,205.2,64.21,22.26,8.45,42.99,21.14,64.72,30.82,86.71,39.77,183.24,50.79,275.42,72.7-93.28-15.01-191.99-25.9-278.95-64.95-83.73-46.44-176.94-69.87-266.4-102.78h0Z"/>
            </g>
            <path class="cls-12" d="M1204.52,1601.22c78.81,28.82,156.04,60.23,232.53,94.74-80.54-23.46-158.51-55.28-232.53-94.74h0Z"/>
          </g>
          <g>
            <path class="cls-2" d="M870.16,524.63c.15,14.85-.53,48.42-24.35,46.68l-.55-.1c-35.17-8.17-72.84-114.65-53.11-141.61,8.8-12.5,23.98-12.14,37.27-2.65,30.06,23.81,37.94,62.18,40.75,97.69"/>
            <path class="cls-13" d="M875.32,503.19c.14,10.98,18.02,44.83-5.15,43.54l-30.72,17.75c-.15-67.95-66.91-103.92-47.74-123.85,8.56-9.24,31.06-16.68,43.98-9.67,29.23,17.6,36.89,45.97,39.62,72.22"/>
            <path class="cls-12" d="M870.16,524.63c1.23,14.88,2.74,32.45-8.24,44.81-4.23,4.43-10.89,6.41-16.75,6.05-8.01-1.44-14.26-5.79-19.5-10.53-15.05-14.19-24.72-32.76-32.55-51.45-7.45-18.89-13.13-38.88-13.58-59.46-1.88-26.93,17.36-49.79,45.03-37.21,12.92,6.23,22.23,18.21,29.4,30.21,13.6,24.21,16.63,51.55,16.19,77.59-5.79-31.81-13.51-63.94-36.79-86.17-8.86-9.78-27.3-18.34-35.79-4.28-13.34,30.12,13.75,99.82,35.3,123.43,26.09,27.53,36.18-9.65,37.28-32.97h0Z"/>
            <path class="cls-2" d="M1238.91,524.63c-.15,14.85.53,48.42,24.35,46.68l.55-.1c35.17-8.17,72.84-114.65,53.11-141.61-8.8-12.5-23.98-12.14-37.27-2.65-30.06,23.81-37.94,62.18-40.75,97.69"/>
            <path class="cls-13" d="M1236.98,503.19c-.14,10.98.51,35.8,23.68,34.51l5.96,29.53c17.25-76.19,74.25-93.1,46.22-134.31-7.08-10.41-23.31-8.97-36.23-1.96-29.23,17.6-36.89,45.97-39.62,72.22"/>
            <path class="cls-12" d="M1238.91,524.63c1.11,23.26,11.17,60.53,37.28,32.97,21.51-23.53,48.65-93.28,35.3-123.43-8.5-14.04-26.93-5.5-35.79,4.29-23.28,22.23-31,54.35-36.79,86.17-.44-26.05,2.6-53.38,16.19-77.59,7.17-12,16.48-23.98,29.4-30.21,27.64-12.55,46.9,10.22,45.02,37.21-.44,20.59-6.13,40.58-13.58,59.46-7.83,18.7-17.51,37.26-32.56,51.45-5.24,4.74-11.48,9.09-19.48,10.53-5.87.37-12.53-1.62-16.76-6.05-10.98-12.35-9.46-29.93-8.24-44.8h0Z"/>
            <path class="cls-2" d="M1276.19,467.96c-10.95,94.27-15.98,95.39-24.04,162.34-4.4,36.11-30.25,53.36-69.2,78.87-38.46,25.17-50.19,67.93-130.58,67.93-41.15,0-66.51-11.09-86.5-25.22-19.3-13.59-33.62-30-52.29-41.98-39.97-25.61-57.37-42.76-61.38-79.61-7.13-64.17-13.15-68.07-24.04-162.34-25.07-215.85,40.46-345.65,223.97-354.84,123-6.11,190.49,52.34,216.64,151.64,14.86,56.1,16.47,125.25,7.43,203.2Z"/>
            <path class="cls-13" d="M1276.19,467.96c-10.95,94.27-15.98,95.39-24.04,162.34-4.4,36.11-30.25,53.36-69.2,78.87-38.46,25.17-50.19,67.93-130.58,67.93-41.15,0-66.51-11.09-86.5-25.22,12.36.44,24.78,4.11,36.99,6.84,20.23,4.5,41.05,6.25,61.72,5.28,14.47-.63,29.32-2.83,41.64-10.51,10.46-6.5,18.23-16.47,25.51-26.49,20.52-28.2,38.56-58.15,56.59-88.06,4.15-6.94,8.5-14.71,6.99-22.68-1.51-7.97-12.46-13.88-18.03-7.92,8.55-29.08,26.29-55.42,49.99-74.23,11.39-9.04,25.41-18.72,25.7-33.23.1-5.62-2-11.09-5.03-15.83-14.81-23.7-47.16-29.08-75.01-26.54-21.7,2-48.62,5.13-60.55-13.15,28.59,5.33,58.1,5.28,86.64-.1,10.46-1.95,22.33-5.96,25.9-15.98,3.03-8.45-1.56-18.23-8.8-23.51-7.28-5.28-16.57-6.84-25.51-7.28-31.42-1.56-63.29,9.97-86.45,31.23,4.98-20.28,23.95-34.7,43.98-40.71,20.04-6.06,41.34-5.37,62.26-5.72,4.06-.05,8.6-.39,11.34-3.32,2.05-2.2,2.64-5.38,2.49-8.36-.64-11.58-11.14-20.67-22.38-23.51-11.24-2.79-23.02-.73-34.45,1.32-6.06,1.07-12.17,2.2-18.23,3.32-13.39,2.39-26.78,4.84-40.17,7.28,13.83-8.55,30.2-17.15,47.11-23.51,32.25-12.07,66.61-16.03,89.77,4.4-2.49-8.75-13.34-26.93-21.94-29.86-40.41-13.68-116.84-38.12-159.51-38.02-85.42.15-137.76,28.74-222.45,39.63-2.69.39-6.06.44-7.53-1.86-1.08-1.76-.54-4.01.15-5.96,9.33-26.58,35.04-43.88,60.74-55.42,77.99-34.94,167.33-33.47,252.11-22.77,32.25,4.11,64.85,9.53,94.32,23.21,8.26,3.86,17.69,8.85,26.98,14.86,14.86,56.1,16.47,125.25,7.43,203.2Z"/>
            <path class="cls-13" d="M1006.88,359.25c-12.46-9.97-24.21-20.92-37.64-29.56-13.42-8.64-28.97-14.95-44.91-14.29-8.15.34-16.12,2.48-23.93,4.83-8.33,2.51-16.59,5.27-24.75,8.29-3.11,1.15-6.28,2.38-8.8,4.53-2.52,2.16-4.32,5.45-3.82,8.73,6.63-1.01,13.3-1.69,20-2.04,10.2-.53,23.1-.91,53.71,17.47,20.76,12.47,39.25,8.44,50.75,23.34,11.5,14.89,14.04,23.59,12.54,42.34-9.61-8.8-19.38-17.7-30.97-23.65-27.22-13.96-62.11-8.95-86.53,9.48,18.55-2.54,37.19-4.83,55.91-4.84,7.67,0,15.55.42,22.58,3.49,1.56.68,3.24,1.72,3.5,3.4.26,1.68-2.19,3.3-3.16,1.91,15.81.88,30.49,12.37,35.15,27.5-17.71-4.26-35.22,9.65-53.4,8.5-8.73-.55-16.81-4.54-24.94-7.77-11.93-4.74-24.46-7.96-37.2-9.57-2.45-.31-5.32-.41-6.97,1.43-2.46,2.74-.12,7.05,2.46,9.68,6.92,7.07,15.61,12.09,24.18,17.03,12.33,7.1,24.87,14.29,38.67,17.76,11.14,2.8,22.75,3.08,34.24,3.12,9.64.04,19.42-.09,28.71-2.66,9.29-2.57,18.19-7.9,23.14-16.17,6.51-10.88,5.19-24.52,4.12-37.16-1.36-16.08-2.04-32.54-7.84-47.6-3.39-8.78-8.42-16.82-13.42-24.79l-1.34,7.26Z"/>
            <path class="cls-13" d="M1086.65,347.6c-8.81,3.08-18.14,6.9-23.08,14.81-3.13,5.01-4.08,11.08-4.43,16.98-.78,13.14,1.03,26.28,2.84,39.32,4.07,29.3,8.13,58.6,12.2,87.9.75,5.44,1.5,11.07,0,16.35-2.22,7.81-8.96,13.49-15.99,17.54-14.83,8.56-32.55,12.03-49.52,9.68-1.51-.21-3.17-.43-4.46.39-1.82,1.17-1.88,4-.63,5.76,1.26,1.76,3.4,2.64,5.49,3.21,8.13,2.22,26.64,46.16,45.79,46.16,17.63,0,33.84-45.79,50.46-51.67,1.64-.58,3.34-1.2,4.58-2.42,3.56-3.49,1.6-9.44-.46-13.98-10.39-22.9-17.82-47.14-22.03-71.93-1.92-11.32-3.1-23.35,1.31-33.96,4.73-11.38,15.09-19.27,22.66-29,7.44-9.56,12.18-20.92,19.05-30.9,5.57-8.1,38.49-30.82,21.25-39.66-7.73-3.97-22.35,2.65-30.21,4.73-11.73,3.11-23.35,6.68-34.81,10.68Z"/>
            <path class="cls-13" d="M1008.78,669.54c-3.11,1.03-6.69,2.76-7.06,6.02-.23,2.04.95,3.95,2.13,5.62,4.96,6.98,11.01,13.18,17.85,18.32,7.31,5.48,15.64,9.78,24.62,11.46,6.48,1.21,13.17,1.03,19.69.03,13.09-2.01,27.11-7.92,34.07-19.87,5.48-9.41,3.63-19.21-6.47-24.15-23.56-11.53-61.17-5.27-84.85,2.56Z"/>
            <path class="cls-13" d="M889.36,551.66c-8.86-10.48-19.45-20.34-32.68-23.99-.9-.25-1.86-.47-2.76-.21-2.15.62-2.65,3.4-2.67,5.64-.21,21.09,6.86,41.75,17.15,60.16,10.29,18.41,23.74,34.83,37.31,50.98,6.36,7.58,12.77,15.13,19.51,22.37,5.38,5.79,13.93,11.75,20.39,7.2,3.6-2.54,4.67-7.4,4.72-11.81.23-20.55-14.1-41.6-20.78-60.77-2.92-8.38-7.89-13.66-14.25-19.72-9.63-9.18-17.37-19.73-25.94-29.86Z"/>
            <path class="cls-12" d="M1054.5,778.2c-38.68,2.02-77.39-6.65-105.97-32.93-21.02-20.11-46.74-37.67-69.03-56.3-15.25-12.66-26.15-31.48-28.81-51.24,0,0-3.89-28.48-3.89-28.48-2.7-18.79-6.49-37.37-10.03-56.25-38.24-198.2-38.59-435.86,220.56-447.38,260.05-9.01,250.36,257.95,215.09,444.96-3.44,18.91-7.25,37.51-10.06,56.31-2.71,17.22-4.16,42.15-15.13,56.59-17.32,24.97-44.18,37.6-67.77,54.21-15.21,11.36-27.8,31.04-43.12,42.5-23.14,17.86-53.27,18.96-81.83,18.01,28.51-.38,57.38-7.5,79.66-25.71,14.92-12,26.88-27.08,41.96-39.14,22.27-16.8,49.09-30.95,64.09-54.4,9.93-13.19,10.25-37.78,12.66-53.43,2.46-19.06,5.92-38,8.95-56.75,28.14-174.25,41.94-437.59-203.8-426.14-246.81,8.6-241.76,241.85-210.68,428.51,3.12,18.75,6.58,37.71,8.94,56.81,2.05,15.83,3,40.23,11.35,54.18,12.95,24.91,40.62,38.48,62.29,55.79,21.68,18.38,41.55,40,68.78,49.88,17.6,7.01,36.73,10.02,55.82,10.39h0Z"/>
            <path class="cls-2" d="M778.52,337.44c22.87-21.75,48.28-40.76,75.5-56.64-9.09,22.77-9.19,50.43-9.14,80.54.1,35.92-19.69,63.58-13.88,113.96v.1c.05.49-.2.78-.73.93v.05c-1.22.29-4.01-.49-7.72-2.54-13.98-7.62-40.76-32.94-45.99-83.86-1.56-15.15-1.22-32.6,1.95-52.53Z"/>
            <path class="cls-2" d="M1321.89,428.92s0,.1-.05.15c-11.24,24.83-28.25,36.85-37.29,40.12-3.91,1.47-6.3,1.27-6.26-.15,2.79-54.68-11.68-77.51-11.88-109.86-.29-48.72-.39-87.13-37.73-112.79.68.1,1.37.2,2.05.29,31.37,4.54,63.48,10.85,90.26,27.51.1,13.24,1.07,27.02,4.35,40.32,13.1,53.07,7.62,89.92-3.47,114.4Z"/>
            <path class="cls-1" d="M1321.89,428.92c14.22-33.67.39-59.13-4.35-52.58-7.28,9.82-13.34,49.21-33.08,71.89-5.13,5.86-1.86,13.78.1,20.96-3.91,1.47-6.3,1.27-6.26-.15,2.79-54.68-11.68-77.51-11.88-109.86-.29-48.72-.39-87.13-37.73-112.79-6.06-4.2-13.1-8.01-21.31-11.53-7.72-3.27-16.32-6.3-26-8.94-30.84-8.5-72.03-13.88-127.11-15.64-55.08,1.76-96.27,7.14-127.11,15.64-9.68,2.64-18.28,5.67-26,8.94-25.56,10.9-39.53,26.68-47.16,45.94-9.09,22.77-9.19,50.43-9.14,80.54.1,35.92-19.69,63.58-13.88,113.96-.2.34-.44.68-.73,1.03v.05c-2.15,2.88-4.98,4.94-8.55,4.98-2.44.05-.98-3.47.83-7.53,1.71-4.06,3.67-8.6,2.1-10.56-11.14-13.83-21.99-52.58-27.9-63.29-7.48-13.49-22.28-2.35,5.62,54.1-13.63-13.05-21.45-40.46-25.8-64.12-4.06-21.75-5.23-40.32-5.38-41.73-.29-3.13,2.1-5.82,4.35-8.02.98-.98,2-1.91,2.98-2.79,1.17-7.28,2.74-14.95,4.69-22.92,11.53-46.72-5.96-99.15,13.1-114.5,59.52-54.49,165.71-108.29,257.98-104.09,92.26-4.2,198.46,49.6,257.98,104.09,13.63,11,8.55,40.9,8.75,74.18.1,13.24,1.07,27.02,4.35,40.32,13.1,53.07,7.62,89.92-3.47,114.4Z"/>
            <path class="cls-6" d="M776.56,389.97c-1.56-15.15-1.22-32.6,1.95-52.53,1.17-7.28,2.74-14.95,4.69-22.92,11.53-46.72-5.96-99.15,13.1-114.5,59.52-54.49,165.71-108.29,257.98-104.09,92.26-4.2,198.46,49.6,257.98,104.09,13.63,11,8.55,40.9,8.75,74.18.1,13.24,1.08,27.02,4.35,40.32,13.1,53.07,7.62,89.92-3.47,114.4,0,.05,0,.1-.05.15-11.24,24.83-28.25,36.85-37.29,40.12-3.91,1.47-6.3,1.27-6.26-.15,2.79-54.68-11.68-77.51-11.88-109.86-.29-48.72-.39-87.13-37.73-112.79-6.06-4.2-13.1-8.01-21.31-11.53-7.72-3.27-16.32-6.3-26-8.94-30.84-8.5-72.03-13.88-127.11-15.64-55.08,1.76-96.27,7.13-127.11,15.64-9.68,2.64-18.28,5.67-26,8.94-25.56,10.9-39.53,26.68-47.16,45.94-9.09,22.77-9.19,50.43-9.14,80.54.1,35.92-19.69,63.58-13.88,113.96v.1c.05.49-.2.78-.73.93v.05c-1.22.29-4.01-.49-7.72-2.54-13.98-7.62-40.76-32.94-45.99-83.86"/>
            <path class="cls-12" d="M1054.29,95.92c92.56-4.02,197.38,43.14,264.26,106,4.7,7.03,6.12,16.16,6.55,24.22,1.12,31.91-3.2,62.04,5.65,92.72,13.1,53.2,11.61,128.82-45.47,155.82-6.22,2.25-13.27.58-12.32-7.66.57-14.02.09-28.11-1.83-42-2.6-20.85-9.41-40.83-10.24-62.27-1.04-30.73,1.55-62.1-13.88-88.88-31.83-50.6-127.73-53.39-182.34-56.82-46.09-.3-93.39,3.7-137.68,15.28-42.6,10.94-70.36,34.04-74.51,80.18-2.71,20.29-.82,42.05-2.75,62.53-5.63,34.62-18.28,64.95-13.34,99.52-.03-.18.13.76-.03,2-.24,2.68-3.23,4.84-4.44,4.95-2.7.63-3.48.17-4.62.04-7.54-1.95-13.54-6.72-19-11.39-33.05-30.14-40.8-77.71-35.95-119.95,1.71-20.86,9.34-40.8,10.61-61.54,3.13-26.8-4.6-56.25,4.76-82.87,0,0,2.3-3.88,2.3-3.88,9.09-10.13,19.92-17.63,30.57-25.98,67.62-48.2,149.55-83.41,233.7-80.01-83.52-.66-164.11,35.68-229.93,85.02-9.7,7.8-20.33,15.72-28.72,24.91,0,0-1.65,2.88-1.65,2.88-7.96,25.79-.25,53.22-2.98,80.49-.1,4.01-1.16,11.99-1.7,15.95-7.83,34.81-13.67,71.6-3.88,106.4,6.81,24.04,20.8,49.26,44.08,59.36.13.11.69-.1-.74.18-.57-.03-3.01,1.63-3.14,3.66-.15.91.03,1.53-.05,1.02-1.47-13.52-1.53-27.44.36-40.88,3.38-26.96,13.84-50.1,13.25-76.17,0-36.86-.68-79.36,27.06-107.69,31.61-30.63,78.35-36.3,119.86-42.29,41.85-5.27,84.33-5.92,126.29-1.07,50.66,6.51,114.54,13.2,144.7,60.15,16.71,28.4,14.34,63.7,15.1,94.5.63,19.74,7.32,39.95,9.87,61.23,1.99,14.88,2.38,29.95,1.68,44.92l-.02.5s0,.82-.01-.28c.06-1.1-1.29-3.13-2.3-3.51-.83-.42-1.1-.35-1.19-.39-.27.05.94-.11,1.76-.41,21.36-8.85,34.49-30.88,41.07-52.94,8.37-29.2,5.92-61.09-.57-90.71-1.59-7.15-3.53-15.98-4.28-23.55-2.56-23.6.43-47.85-.26-70.65-.39-7.38-1.15-14.54-5-20.7-67.44-63.5-164.86-110.43-258.66-109.92h0Z"/>
            <path class="cls-12" d="M1109.81,544.15c5.05,14.42-12.24,23.45-23.89,23.3-2.58.13-9.39.61-11.83.9-3.16.4-3.39,1.36-7.59,3.87-2.74,1.74-7.49,3.74-12.38,3.5h.77c-4.87.25-9.63-1.76-12.36-3.48-4.2-2.52-4.4-3.47-7.57-3.88-12.48-1.17-30.37-.49-35.83-15.12-1.08-3.12-.98-6.4.09-9.09,1.63,5.7,5.63,8.79,9.91,9.9,10.08,2.67,22.04-3.33,32.67-.65,5.84,1.51,8.45,4.92,12.33,5.3,1.53-.04,1.5.24,4.02-1.06,2.71-1.72,10.2-5.57,15.17-4.9,13.12-.1,31.01,8.55,36.5-8.6h0Z"/>
            <path class="cls-12" d="M1051.68,369.06c17.78,2.05,18.11,106.31,21.66,125.06.76,6.03,1.56,12.06,3.87,17.81-7.54-10.04-9.72-23.11-12.18-35.14-5.49-30.36-5.52-61.18-7.84-91.77-.46-4.47-.79-9.06-2.44-13.23-.56-1.29-1.43-2.7-3.07-2.73h0Z"/>
            <path class="cls-2" d="M1022.86,666.31c6.07.97,19.77.16,32.04-.32,8.17-.31,25.55,1.22,31.26.32"/>
            <path class="cls-12" d="M1022.86,666.31c20.14-11.12,43.53-12.04,63.3,0-15.17,10.95-48.53,11.65-63.3,0h0Z"/>
            <path class="cls-2" d="M1146.56,625.15c-27.32,7.05-42.44,6.49-67.15,4.59-7.02-.54-15.88,1.79-24.72,1.77-8.71,0-17.43-2.37-24.3-1.83-25.17,1.95-40.32,2.59-67.93-4.53"/>
            <path class="cls-12" d="M1146.56,625.15c-20.68,11.41-45.64,13.71-69.08,12.57-6.01.24-14.06,2.29-23.02,2.3-8.93-.08-17.01-2.23-22.73-2.32-23.03,1.31-48.77-1.15-69.28-12.55,23.08,1.35,46.32-.41,68.66-3.6,9.78-.38,16.88,1.56,23.43,1.44,7.36.15,19.83-2.56,29.39-.74l5.68.71c18.85,2.82,37.14,3.05,56.94,2.2h0Z"/>
            <path class="cls-12" d="M1009.64,348.27c-1.45-3.69-4.33-8.07-9.75-12.23l1.43,4.26c-7.25-6.7-13.08-8.6-20.54-11.09,5.66,4.64,9.21,7.85,11.27,10.28-7.64-5.44-12.45-10.41-19.94-14.39-22.52-12-41.15-13.6-66.22-11.56-13.45,1.1-19.3,2.52-23.66,4.11,3.38-.37,8.72-.15,8.72-.15-13.93,2.69-24.22,14.18-29.9,27.8,10.28-9.8,22.38-16.71,40.87-14.15,12.59,1.73,20.74,8.58,42.11,14.28l-7.57-5.03c10.85,4.92,20.74,10.94,31.33,16.27,16.31,8.24,16.71,2.01,24.63,8.28,5.86,4.64,10.77,4.33,11.73,3.95,7.58-3.11,9.67-10.04,5.48-20.63Z"/>
            <path class="cls-12" d="M1099.71,348.31c1.45-3.68,4.32-8.06,9.72-12.2l-1.43,4.25c7.24-6.69,13.06-8.58,20.5-11.06-5.65,4.62-9.19,7.84-11.25,10.27,7.63-5.43,12.43-10.39,19.9-14.37,22.48-11.97,41.06-13.57,66.06-11.54,13.44,1.1,19.26,2.51,23.62,4.1-3.37-.37-8.7-.15-8.7-.15,13.89,2.68,24.17,14.16,29.84,27.74-10.27-9.78-22.33-16.67-40.79-14.12-12.55,1.74-20.69,8.57-42.01,14.26l7.55-5.02c-10.82,4.91-20.7,10.91-31.25,16.23-16.28,8.22-16.68,2.01-24.58,8.27-5.85,4.63-10.75,4.32-11.7,3.94-7.57-3.1-9.65-10.01-5.47-20.59Z"/>
            <path class="cls-3" d="M957.6,415.41c-2.64-.09-4.85,1.82-4.92,4.26-.08,2.43,1.99,4.47,4.64,4.57,2.64.08,4.84-1.83,4.92-4.26.08-2.44-2-4.49-4.64-4.57Z"/>
            <path class="cls-3" d="M933.6,427.95c-1.77-.06-3.26,1.22-3.3,2.86-.06,1.64,1.34,3.01,3.11,3.07,1.77.06,3.26-1.22,3.31-2.86.05-1.64-1.35-3.01-3.12-3.07Z"/>
            <g>
              <path class="cls-6" d="M989.53,440.78c-6.61-2.95-10.76-.84-17.49,1.8-9.5,3.61-20.38,5.83-29.63,5.05-11.78-1.02-23.44-7.27-35.1-10.64-5.29-1.56-20.32-2.76-26.15-5.23,12.26-5.53,27.59-15.93,38.29-18.63,1.86-.48,3.79-.84,5.77-1.14v-.06c9.92-1.56,20.68-1.26,31.92-1.56l5.47,2.28,15.93,6.67c7.81,8.11,15.81,12.32,19.11,16.77,4.99,6.79-3.13,6.91-8.11,4.69Z"/>
              <path class="cls-12" d="M924.58,446.58c8.43,3.28,12.85,6.54,20.98,6.61-7.05,2.24-11.08-3.54-20.48-5.32-6.07-1.16-38.86-6.61-47.05-15.65-2.85-3.14.43-3.22,4.47-4.62,1.54-.53-4.91,3.19-.16,5.27,10.98,4.8,37.45,11.84,42.23,13.7Z"/>
              <path class="cls-12" d="M1000.72,428.22c-4.49-5.39-9.97-12.03-17.51-18.37-5.69-4.79-10.96-8.12-16.36-9.48-8.54-2.14-24.76-1.16-30.45-1.59-7.71-.56-36.05-2.69-41.49.89-3.15,2.07-15.09,10.45-17.83,14.44-1.9,2.76,2.16.43,7.48-2.63,6.21-3.58,14.04-8.27,14.19-8.31,12.4-4.37,29.86-.75,42.71-.67,9.01.04,19.64-1.43,27.26,1.64,7.9,3.18,15.98,8.64,22.22,15.66.61.69,6.02,6.16,8.73,9.3,1.51,1.74,3.57,2.16,1.04-.87Z"/>
              <g>
                <path class="cls-4" d="M966.33,424.73c-.42,11.54-10.82,20.5-23.26,20.14-12.5-.42-22.3-10.1-21.94-21.58.12-4.21,1.62-8.11,4.09-11.3v-.06c9.92-1.56,20.68-1.26,31.92-1.56l5.47,2.28c2.46,3.49,3.85,7.63,3.73,12.08Z"/>
                <path class="cls-12" d="M966.33,424.73c-.38,14.37-16.09,24.19-29.68,20.51-14.92-2.68-23.46-22.54-12.92-34.41,0,0-.39,1.15-.39,1.15v-.06s.05-1.66.05-1.66c10.07-1.51,23.71-.52,33.9-.26,0,0,5.39,2.46,5.39,2.46,2.48,3.54,3.82,7.95,3.65,12.26h0ZM966.33,424.73c.18-4.18-1.54-8.95-3.8-11.9,0,0-5.54-2.1-5.54-2.1-9.76.86-21.49,1.05-31.47,3.06l1.59-1.86v.06s.02.59.02.59c-8.45,10.43-2.08,26.09,10.32,29.94,12.3,4.74,28.56-3.7,28.89-17.8h0Z"/>
              </g>
              <path class="cls-12" d="M965.22,413.2c-6.81-2.94-17.19-2.04-24.86-1.93-10.15.14-15.46.57-19.56,1.62-9.08,2.3-31.52,13.93-39.42,19l1.67-.08c8.32-4.08,30.08-14.95,38.15-16.81,4.19-.96,9.88-1.57,18.94-1.77,8.26-.18,17.28-1.39,24.56,1.52,12.1,4.83,32.87,22.41,33.63,22.53-10.95-9-19.57-18.23-33.12-24.08Z"/>
              <path class="cls-12" d="M891.19,434.32c5.51.75,11.84,1.9,17.15,3.43,11.63,3.37,22.48,9.33,34.27,10.32,9.25.78,20.11-1.42,29.62-5.06,4.86-1.86,8.34-3.07,11.33-3.06,5.17.03,9.22,3.37,13,2.25-4.28.09-7.6-3.07-12.88-3.12-3.57-.04-7.22,1.12-10.78,2.48-6.13,2.36-15.75,6.61-31.47,5.23-11.49-1.01-21.8-6.96-32.78-10.4-4.32-1.35-13.99-3.41-17.45-2.08Z"/>
              <path class="cls-12" d="M965.59,410.42c-6.8-2.94-17.48-1.63-25.15-1.53-9.81.15-15.91.65-20.81,1.73-14.1,3.08-28.36,14.1-40.36,21.81,11.39-.33,28.14-14.25,41.94-17.43,4.19-.96,9.88-1.57,18.96-1.77,8.26-.18,17.28-1.39,24.56,1.52,2.67,1.06,9.83,4.98,16.08,9.56,8.91,6.54,17.19,14.09,18.54,13.74,4.56-1.2-27.91-25.12-33.75-27.63Z"/>
            </g>
            <g>
              <path class="cls-6" d="M1119.77,440.78c6.61-2.95,10.76-.84,17.49,1.8,9.5,3.61,20.38,5.83,29.63,5.05,11.78-1.02,23.44-7.27,35.1-10.64,5.29-1.56,20.32-2.76,26.15-5.23-12.26-5.53-27.59-15.93-38.29-18.63-1.86-.48-3.79-.84-5.77-1.14v-.06c-9.92-1.56-20.68-1.26-31.92-1.56l-5.47,2.28-15.93,6.67c-7.81,8.11-15.81,12.32-19.11,16.77-4.99,6.79,3.13,6.91,8.11,4.69Z"/>
              <path class="cls-12" d="M1184.72,446.58c-8.43,3.28-12.85,6.54-20.98,6.61,7.05,2.24,11.08-3.54,20.48-5.32,6.07-1.16,38.86-6.61,47.05-15.65,2.85-3.14-.43-3.22-4.47-4.62-1.54-.53,4.91,3.19.16,5.27-10.98,4.8-37.45,11.84-42.23,13.7Z"/>
              <path class="cls-12" d="M1108.59,428.22c4.49-5.39,9.97-12.03,17.51-18.37,5.69-4.79,10.96-8.12,16.36-9.48,8.54-2.14,24.76-1.16,30.45-1.59,7.71-.56,36.05-2.69,41.49.89,3.15,2.07,15.09,10.45,17.83,14.44,1.9,2.76-2.16.43-7.48-2.63-6.21-3.58-14.04-8.27-14.19-8.31-12.4-4.37-29.86-.75-42.71-.67-9.01.04-19.64-1.43-27.26,1.64-7.9,3.18-15.98,8.64-22.22,15.66-.61.69-6.02,6.16-8.73,9.3-1.51,1.74-3.57,2.16-1.04-.87Z"/>
              <g>
                <path class="cls-4" d="M1142.97,424.73c.42,11.54,10.82,20.5,23.26,20.14,12.5-.42,22.3-10.1,21.94-21.58-.12-4.21-1.62-8.11-4.09-11.3v-.06c-9.92-1.56-20.68-1.26-31.92-1.56l-5.47,2.28c-2.46,3.49-3.85,7.63-3.73,12.08Z"/>
                <path class="cls-7" d="M954.36,424.54c-.63,14.86-22.64,11.77-21.19-1.42,1.85-12.92,19.96-11.87,21.16.86l.02.57Z"/>
                <path class="cls-7" d="M1154.94,424.54c.63,14.86,22.64,11.77,21.19-1.42-1.85-12.92-19.96-11.87-21.16.86l-.02.57Z"/>
                <path class="cls-12" d="M1142.97,424.73c.33,14.09,16.58,22.54,28.89,17.8,12.4-3.86,18.78-19.52,10.32-29.94.01-.02.01-.65.02-.65l1.59,1.86c-9.97-2.01-21.72-2.2-31.47-3.06l-5.54,2.1c-2.25,2.95-3.99,7.72-3.8,11.9h0ZM1142.97,424.73c-.17-4.31,1.17-8.72,3.65-12.26l5.39-2.46c10.23-.25,23.79-1.25,33.9.26l.05,1.66v.06s-.39-1.15-.39-1.15c10.54,11.87,2.01,31.73-12.92,34.41-13.59,3.67-29.3-6.14-29.68-20.51h0Z"/>
                <path class="cls-2" d="M958.63,420c-.3,7.13-10.87,5.65-10.17-.68.89-6.2,9.58-5.7,10.16.41v.27Z"/>
                <path class="cls-2" d="M1149.84,420.18c.3,7.13,10.87,5.65,10.17-.68-.89-6.2-9.58-5.7-10.16.41v.27Z"/>
                <path class="cls-2" d="M1174.01,428.3c.18,4.28,6.52,3.39,6.1-.41-.53-3.72-5.75-3.42-6.09.25v.16Z"/>
                <path class="cls-2" d="M930.04,428.3c.18,4.28,6.52,3.39,6.1-.41-.53-3.72-5.75-3.42-6.09.25v.16Z"/>
              </g>
              <path class="cls-12" d="M1144.08,413.2c6.81-2.94,17.19-2.04,24.86-1.93,10.15.14,15.46.57,19.56,1.62,9.08,2.3,31.52,13.93,39.42,19l-1.67-.08c-8.32-4.08-30.08-14.95-38.15-16.81-4.19-.96-9.88-1.57-18.94-1.77-8.26-.18-17.28-1.39-24.56,1.52-12.1,4.83-32.87,22.41-33.63,22.53,10.95-9,19.57-18.23,33.12-24.08Z"/>
              <path class="cls-12" d="M1218.12,434.32c-5.51.75-11.84,1.9-17.15,3.43-11.63,3.37-22.48,9.33-34.27,10.32-9.25.78-20.11-1.42-29.62-5.06-4.86-1.86-8.34-3.07-11.33-3.06-5.17.03-9.22,3.37-13,2.25,4.28.09,7.6-3.07,12.88-3.12,3.57-.04,7.22,1.12,10.78,2.48,6.13,2.36,15.75,6.61,31.47,5.23,11.49-1.01,21.8-6.96,32.78-10.4,4.32-1.35,13.99-3.41,17.45-2.08Z"/>
              <path class="cls-12" d="M1143.72,410.42c6.8-2.94,17.48-1.63,25.15-1.53,9.81.15,15.91.65,20.81,1.73,14.1,3.08,28.36,14.1,40.36,21.81-11.39-.33-28.14-14.25-41.94-17.43-4.19-.96-9.88-1.57-18.96-1.77-8.26-.18-17.28-1.39-24.56,1.52-2.67,1.06-9.83,4.98-16.08,9.56-8.91,6.54-17.19,14.09-18.54,13.74-4.56-1.2,27.91-25.12,33.75-27.63Z"/>
            </g>
            <path class="cls-12" d="M1256.33,528.76c-25.77,25.84-51.06,51.2-76.91,76.95,16.39-32.88,44.07-60.51,76.91-76.95h0Z"/>
            <path class="cls-12" d="M861.05,528.76c32.84,16.44,60.52,44.08,76.91,76.95-25.86-25.75-51.14-51.11-76.91-76.95h0Z"/>
            <path class="cls-12" d="M833.14,466.58c-20.54-30.45-31.09-68.11-29.23-104.8,9.89,35.13,19.46,69.64,29.23,104.8h0Z"/>
            <g>
              <path class="cls-12" d="M827.29,464.26c-12.6-19.95-25.18-39.86-37.95-59.93,6.22,25.28,18.64,49.15,35.42,69.23.34-3.29,1.19-6.41,2.53-9.3Z"/>
              <path class="cls-12" d="M827.29,464.26c-12.6-19.95-25.18-39.86-37.95-59.93,6.22,25.28,18.64,49.15,35.42,69.23.34-3.29,1.19-6.41,2.53-9.3Z"/>
            </g>
            <path class="cls-12" d="M1273.72,466.58c20.54-30.45,31.09-68.11,29.23-104.8-9.89,35.13-19.46,69.64-29.23,104.8h0Z"/>
            <g>
              <path class="cls-12" d="M1279.57,464.26c12.6-19.95,25.18-39.86,37.95-59.93-6.22,25.28-18.64,49.15-35.42,69.23-.34-3.29-1.19-6.41-2.53-9.3Z"/>
              <path class="cls-12" d="M1279.57,464.26c12.6-19.95,25.18-39.86,37.95-59.93-6.22,25.28-18.64,49.15-35.42,69.23-.34-3.29-1.19-6.41-2.53-9.3Z"/>
            </g>
            <path class="cls-13" d="M1009.41,537.09c7.37-.56,32.25-14.33,15.38-18.96-5.34-1.47-11.26-.05-15.51,3.33-5.43,4.32-11.87,16.55.13,15.63Z"/>
          </g>
          <g>
            <path class="cls-2" d="M1354.97,296.44c-5.86,11.09-19.11,50.63-27.02,59.72-41.39-101.74-133.61-154.03-268.48-150.22-251.72,7.04-269.61,121.78-280.07,186.58-3.23,19.89-35.19,20.38-72.42-4.01-67.88-44.37-12.51-114.65-7.62-120.07-26.88-31.13,56.44-111.37,92.8-150.37C870.1,34.4,956.79,1.56,1046.9,8.84c26.73,2.15,53.76,7.82,80.93,16.76,23.75,7.77,47.65,17.98,71.54,30.54,123.54,64.75,208.03,145.48,155.6,240.29Z"/>
            <path class="cls-10" d="M1354.97,296.44c-5.86,11.09-19.11,50.63-27.02,59.72-41.39-101.74-133.61-154.03-268.48-150.22-251.72,7.04-269.61,121.78-280.07,186.58-3.23,19.89-35.19,20.38-72.42-4.01-67.88-44.37-12.51-114.65-7.62-120.07-26.88-31.13,56.44-111.37,92.8-150.37C870.1,34.4,956.79,1.56,1046.9,8.84c-104.53,26.68-270.05,103.26-185.85,137.22,43.05,17.4,150.71-87.96,361.09,40.22-142.45-86.79,10.56-118.31,24.87,15.59-2.39-22.38,39.34-37.92,64.36-27.12,11.04,5.33,15.39,22.97,5.33,30-9.04,6.35-56.39-13.29-60.4-2.93-1.32,18.81,73.99,62.55,90.41,34.5,29.22-50.04-44.18-102.82-107.8-131.46-49.94-29.96-73.89-45.06-111.08-79.26,23.75,7.77,47.65,17.98,71.54,30.54,123.54,64.75,208.03,145.48,155.6,240.29Z"/>
            <path class="cls-12" d="M1059.48,205.91l-44.79,3.42c-10.42,1.47-28.66,4.07-38.87,5.45-58.65,11.19-122.56,31.55-158.21,82.54-17.14,23.95-26.25,52.39-30.92,81.38-1.96,8.31-.84,15.57-6.05,23.74-17.43,20.15-50.71,4.86-69.37-4.81-112.27-61.7,30.3-181.37,13.42-158.21-7.03,10.26-19.28,13.55-23.88,24.57-1.67,4-.48,13.31-4.48,11.64-34.81-29.85,29.49-97.02,49.92-120.76,18.06-19.75,36.53-39.34,55.37-58.21C876.36,20.99,980.51-16.18,1085.69,6.69c42.47,8.29,83.2,25.07,121.35,45.16,69.44,38.45,165.45,96.56,169.41,185.18.66,22.55-7.27,44.78-17.65,63.3-6.51,13.91-11.98,29.67-18.71,43.93-2.45,3.85-7.72,20.67-14.97,15.69-11.71-25.36-24.01-50.02-43.06-71.04-54.49-63.4-141.85-83.88-222.58-83,27.44-1.1,55.08-.19,82.34,4.18,84.17,12,158.84,63.94,190.45,144.32,0,0-7.8-1.3-7.8-1.3,2.48-3.21,4.85-8.2,6.94-12.84,6.6-14.77,11.36-29.35,18.09-44.51,9.82-18.46,16.31-37.72,15.51-58.48-4.92-81.97-99.91-136.44-164.92-172.34-72.78-38.67-159.09-61.81-240.7-41.36-60.64,14.66-114.3,51.43-157.14,96.2-34.69,37.8-76.63,73.66-97.63,120.93-3.32,8.99-3.75,17.7.67,22.57l-10.26,3.92c10.83-24.72,60.61-74.24,101.73-98.17,6.54-3.81-123.94,114.38-118.23,172.68,3.24,21.15,20.1,35.47,38.27,46.13,14.79,7.96,42.02,21.56,55.64,8.65,3.09-4.66,3.09-13.57,4.64-19.51,4.09-22.19,10.54-45.1,21.6-65.02,50.25-90.56,167.51-104.03,260.8-106.04h0Z"/>
            <path class="cls-12" d="M1054.28,215.5c-211.12,6.19-254.96,128.77-270.96,95.12-8-16.93,22.36-67.45,63.95-97.7,4.55-3.29,9.1-6.41,13.75-9.37,51.34-32.99,109.6-50.52,193.26-50.52s141.92,17.53,193.26,50.52c4.6,2.96,9.21,6.08,13.7,9.37,41.64,30.25,72,80.77,63.95,97.7-16,33.64-59.84-88.93-270.91-95.12"/>
            <path class="cls-2" d="M1054.28,215.5c-211.12,6.19-254.96,128.77-270.96,95.12-8-16.93,22.36-67.45,63.95-97.7,4.55-3.29,9.1-6.41,13.75-9.37,51.34-32.99,109.6-50.52,193.26-50.52s141.92,17.53,193.26,50.52c4.6,2.96,9.21,6.08,13.7,9.37,41.64,30.25,72,80.77,63.95,97.7-16,33.64-59.84-88.93-270.91-95.12"/>
            <path class="cls-10" d="M1053.33,235.69c-211.12,6.19-255.87,123.96-271.87,90.32-8-16.93,22.36-67.45,63.95-97.7,4.55-3.29,9.1-6.41,13.75-9.37,51.34-32.99,109.6-50.52,193.26-50.52s141.92,17.53,193.26,50.52c4.6,2.96,9.21,6.08,13.7,9.37,41.64,30.25,72,80.77,63.95,97.7-16,33.64-58.93-84.13-270-90.32"/>
            <path class="cls-12" d="M1054.28,215.5c-79.42,4.61-158.43,27.27-220.42,77.97-10.9,8.43-20.04,17.3-31.89,25.16-3.85,2.32-8.51,4.68-13.53,3.81-5.58-.78-9.82-5.74-11.47-10.83-1.11-1.94-1.02-4.72-1.26-6.83.27-20.08,12.51-38.11,23.25-53.7,58.34-78.31,161.33-107.53,255.28-106.56,67.66-.25,137.62,12.98,194.89,50.89,36.06,23.32,68.87,55.68,82.24,97.57,2.71,9.35,2.36,21.8-6.62,27.74-13.11,7-25.38-8.03-34.72-14.65-64.63-58.24-149.4-86.08-235.76-90.57,80.25-.76,162.66,19.76,227.17,69.15,10.47,7.43,20.9,16.89,31.44,23.48,2.41,1.55,5.05,2.16,5.08,1.97.05.02-.09.05.39-.45.28-.5,1.21-1.68,1.18-2.43,1.52-16.36-11.68-34.11-21.4-47.64-15.54-20.61-35.26-37.66-57.27-51.03-55.39-35.21-121.1-47.51-186.62-47.01-72.1-.9-144.31,15.12-202.84,57.77-25.06,18.73-48.23,43.87-60.16,72.83-2.34,7.05-4.41,13.63-.71,17.97.07.19,2.72-.44,5.13-1.99,10.55-6.62,20.98-16.05,31.45-23.49,21.66-16.08,45.18-29.94,70.07-40.33,49.69-20.6,103.63-29.06,157.1-28.81h0Z"/>
            <path class="cls-12" d="M1054.29,184.71c91.77,0,155.67,19.23,211.99,55.42,5.05,3.25,10.1,6.67,15.03,10.28,45.68,33.18,78.98,88.6,70.14,107.17-17.55,36.9-65.64-97.55-297.16-104.34-231.59,6.79-279.67,141.25-297.22,104.34-8.78-18.57,24.52-73.99,70.14-107.17,4.99-3.61,9.98-7.03,15.09-10.28,56.32-36.18,120.22-55.42,211.99-55.42"/>
            <path class="cls-2" d="M1351.43,357.56c-3.37,7.09-7.93,7.87-14.67,4.33-1.62-.84-3.37-1.92-5.29-3.25-31.07-21.22-101.1-100.26-277.21-105.43-192.58,5.59-258.27,99.6-285.02,109.81-1.38.54-2.64.84-3.85.9-3.49.18-6.13-1.74-8.35-6.37-2.34-4.99-1.68-12.56,1.44-21.7,8.23-24.22,33.72-59.08,65.82-83.31.96-.72,1.92-1.44,2.88-2.16.24-.18.54-.42.84-.6,4.69-3.37,9.44-6.61,14.25-9.68,56.32-36.18,120.21-55.42,211.99-55.42s155.67,19.23,211.99,55.42c4.75,3.07,9.56,6.31,14.18,9.68.3.18.6.42.84.6,2.1,1.5,4.15,3.07,6.19,4.69.54.42,1.14.9,1.74,1.38,29.69,23.98,53.01,56.44,60.83,79.34,1.02,3.07,1.74,5.95,2.16,8.6,1.02,5.35.78,9.86-.78,13.16Z"/>
            <path class="cls-10" d="M1352.21,344.4c-.96,4.87-3.73,9.14-8.72,12.5-3.37,2.16-7.21,2.58-12.02,1.74-31.07-21.22-101.1-100.26-277.21-105.43-192.58,5.59-258.27,99.6-285.02,109.81-1.98-1.74-3.79-4.33-5.47-7.75-14.43-13.94,27.47-76.81,60.53-102.72.96-.72,1.92-1.44,2.88-2.16.24-.18.54-.42.84-.6,5.59-4.15,17.41-14.42,14.25-9.68-41.49,62.12,95.59-3.79,211.06-4.43,121.76-.67,242.42,63.67,212.93,4.43-2.52-5.06,8.6,5.59,14.18,9.68.3.18.6.42.84.6,2.1,1.5,4.15,3.07,6.19,4.69.54.42,1.14.9,1.74,1.38,28.49,22.54,68.1,63.29,62.99,87.93Z"/>
            <path class="cls-12" d="M1054.29,184.71c83.74-3.62,172.13,15.58,239.46,68.52,26.24,21.58,49.22,47.33,62.14,79.45,2.14,5.91,3.87,11.97,3.67,18.47-.13,6.77-2.78,13.7-8.62,17.57-14.13,7.84-28.32-8.48-38.59-15.53-115.48-98.37-287.59-116.17-425.29-56.82-26.24,11.34-50.84,26.11-73.74,43.49-12.22,8.94-22.37,18.49-35.6,26.88-12.79,8.39-25.63,3.73-28.59-12.08-.74-7.6.85-15.09,3.53-22.02,14.44-35.46,40.87-63.84,71.14-86.22,66.32-47.92,150.38-65.13,230.49-61.71-14.6.6-29.19,1.26-43.68,2.94-71.76,6.48-142.99,32.5-196.92,81.02-19.99,19.21-38.96,42.46-48.49,68.4-2.18,6.12-3.38,13.24-2.03,16.83.05.46.23.93.6,1.39.29.36.57,1.2.8,1.21.56.52.41.43.44.36,8-2.44,14.6-9.5,22-15.04,73.95-65.26,169.59-95.04,267.25-97.11,89.22,2.24,179.69,26.75,250,83.29,11.25,8.45,22.55,18.98,33.88,26.5,1.99,1.09,3.71,2.26,5.39,2.38,9.74-11.43-12.13-45.06-20.35-56.3-61.63-82.76-169.46-114.04-268.88-115.88h0Z"/>
            <path class="cls-12" d="M1237.56,195.11c7.09-15.78,3.17-34.05-7.97-46.58-11.43-11.34-26.2-23.7-41.81-28.21-.36-.09-.33.11.79-.33,1.16-.37,2.58-2.32,2.59-3,9.2,25.63,32.2,52.07,46.4,78.11-14.92-10.97-85.24-74.25-55.98-90.54,5.12-2.05,8.22-1.25,12.43-.31,10.44,3.33,17.99,8.66,26.11,15.07,10.99,9.57,22.53,20.26,26.6,35.13,3.31,13.71,1.91,31.17-9.17,40.65h0Z"/>
            <path class="cls-12" d="M1247.04,202.42c9.88-26.16,36.48-50.39,66.48-41.35,10.08,2.77,19.24,15.79,13.22,25.62-.77,1.81-3.49.18-3.77-.92.98.38,1.94.09,2.31-.44l-.73.78c-.53-4.12-2.99-6.95-5.63-8.78-8.85-5.24-19.44-2.07-29.15,1.15-15.34,5.45-27.27,16.84-42.73,23.93h0Z"/>
          </g>
        </g>
        <g>
          <path class="cls-5" d="M2088.78,1215.26h-507.29v61.77l15.76,1.48c25.8,2.42,38.08,8.43,43.84,13.05,1.75,1.4,10.29,10.23,10.29,50.08v549.93c0,24.55-3.2,36.5-5.88,42.19-3.15,6.65-7.06,10.84-11.93,12.78-5.34,2.14-16.1,5.34-37.28,8.52l-3.53.53,26.66-210.88,2.47-19.56h-95.15l-3.58,12.65c-13.27,46.91-27.75,86.26-43.04,116.96-14.47,29.22-33.39,52.43-56.27,69.03-17.9,13.01-40.38,20.82-66.84,23.23-6.79-.64-12.39-1.64-16.67-2.99-5.26-1.66-8.62-4.53-10.9-9.28-2.2-4.55-4.79-13.91-4.79-32.95v-536.57c0-37.23,3.77-55.19,6.94-63.71,3.48-9.24,7.84-14.9,12.95-16.76,5.9-2.13,18.33-4.99,43.92-6.46l16.38-.94v-62.11h-351.35v61.52l15.75,1.48c19.56,1.84,34.23,6.33,42.42,12.99,1.7,1.38,10.13,10.24,10.13,50.15v550.11c0,23.96-3.15,35.87-5.78,41.64-3.01,6.59-6.63,10.81-10.76,12.55-4.97,2.1-15.5,5.44-37.5,9.46l-1.66.3,25.44-188.84,2.65-19.7h-94.39l-3.66,12.5c-14.98,51.17-33.13,91.35-53.93,119.42-20.15,27.18-41.5,45.6-63.47,54.76-16.83,7.01-35.05,11.5-54.19,13.35-14.67-1.78-20.43-5.38-22.58-7.41-2.53-2.4-8.42-10.87-8.42-37.71v-245.41c8.65,4.71,15.94,10.77,22.03,18.29,12.09,14.91,27.58,49.42,32.76,129.23l1.05,16.25h93.62v-418.54h-93.35l-1.31,15.96c-3.57,43.62-10.25,77.29-19.85,100.06-8.72,20.69-19.84,34.73-33.06,41.72-.62.33-1.26.65-1.9.97v-235.62c0-25.58,5-30.68,5.05-30.72.44-.36,4.53-3.37,19.21-4.7,26.11,1.49,47.74,5.67,64.3,12.41,19.91,8.1,35.8,23.7,48.6,47.69,13.49,25.39,23.3,63.59,29.16,113.52l1.8,15.35h91.82v-263.01H42.58l-1.15,16.14-16.68,234.07-1.33,18.61h93.59l3.25-13.23c10.76-43.74,22.84-81.1,35.9-111.05,11.76-26.83,28.27-44.62,50.46-54.37,8.21-3.73,15.36-6.25,21.47-7.58,5.79-1.21,18.77-2.44,38.43-3.62,6.98-.42,15.53-.88,26.8-1.45L1.4,1975.41l-1.4,3.27v39.21h1941.55v-62.05l-16.38-.94c-21.01-1.21-36.83-3.29-47.02-6.18-7.11-2.03-12.37-6.34-16.52-13.57-3.4-5.84-7.38-18.04-7.38-43.59v-232.11c1.3.99,2.54,2.02,3.72,3.1,14.41,13.15,24.07,29.75,29.52,50.74,5.96,22.82,10.81,53.48,14.42,91.15l1.5,15.72h92.34v-418.54h-91.95l-1.85,15.3c-4.5,37.3-9.91,67.29-16.08,89.13-5.55,19.46-15.02,34.97-28.92,47.36-.87.77-1.76,1.52-2.7,2.24v-230.94c0-25.59,4.94-30.73,4.99-30.77.39-.32,4.17-3.13,17.73-4.58,29.69,2.01,53.04,8.18,69.43,18.36,20.29,12.62,34.31,29.65,42.83,52.05,9.42,24.7,17.56,59.58,24.19,103.69l2.22,14.79h90.52v-263.01h-17.38ZM590.7,1891.57c0,24.55-3.2,36.5-5.88,42.19-3.13,6.68-7,10.85-11.87,12.78-5.09,2.03-15.24,5.03-34.4,8.06l17.15-226.46,1.42-18.69h-93.35l-2.48,14.44c-8.73,50.82-19.87,91.8-33.1,121.79-12.66,28.75-27.75,50.23-44.85,63.88-17.12,13.76-37.27,23.05-59.92,27.63-19.39,3.95-43.81,6.34-72.61,7.13-1.08-.03-2.19-.06-3.33-.09-1.72-.05-3.51-.11-5.38-.14-.95-.03-1.89-.06-2.81-.08l283.02-666.88,14.28,1.38c14.66,1.42,26.01,3.46,33.72,6.08,4.83,1.68,9.34,6.25,13.3,13.57,3.23,6.01,7.11,18.47,7.11,43.48v549.93Z"/>
          <path class="cls-2" d="M1006.84,1764.8c-15.63,53.4-34.52,95.03-56.65,124.88-22.13,29.86-45.74,50.03-70.75,60.45-19.13,7.97-39.48,12.87-61.06,14.78-16-1.72-27.47-5.76-34.33-12.26-9.26-8.77-13.86-25.57-13.86-50.33v-270.55c22.19,5.64,39.85,16.37,52.91,32.49,19.99,24.65,32.19,71.06,36.6,139.05h59.96v-383.79h-59.96c-3.74,45.67-10.79,80.8-21.15,105.39-10.36,24.58-24.03,41.38-40.95,50.33-7.97,4.23-17.1,7.36-27.4,9.63v-259.64c0-23.3,3.8-38.01,11.46-44.2,5.64-4.6,15.63-7.48,29.92-8.64,28.51,1.53,52.3,6.07,71.12,13.73,23.66,9.63,42.73,28.14,57.38,55.61,14.59,27.47,24.95,67.38,31.08,119.67h58.98v-228.25h-497.88v28.57c15.88,1.53,28.45,3.8,37.64,6.93,9.2,3.19,16.86,10.42,22.99,21.76,6.13,11.4,9.2,28.63,9.2,51.74v549.93c0,22.38-2.51,38.93-7.54,49.6-5.03,10.73-12.08,17.9-21.15,21.52-9.07,3.62-22.81,6.81-41.14,9.56v28.26h504.26l31.82-236.22h-61.49ZM472.42,1727.34c-9.01,52.48-20.48,94.48-34.33,125.86-13.86,31.45-30.47,54.93-49.9,70.44-19.37,15.57-41.87,25.93-67.32,31.08-20.78,4.23-46.16,6.68-76.02,7.48-2.82-.06-5.82-.18-9.07-.25-12.26-.37-21.76-.61-28.51-.61l301.27-709.88v-18.33H52.77l-16.68,234.07h61.31c11.1-45.12,23.42-83.07,36.85-113.85,13.49-30.78,33.29-51.87,59.41-63.33,9.44-4.29,17.72-7.11,24.77-8.64,7.05-1.47,20.72-2.76,41.08-3.99,13.3-.8,31.63-1.72,54.75-2.82L11.39,1982.75v18.27h500.27l20.72-273.68h-59.96ZM1533.9,1743.04c-13.61,48.13-28.32,88.1-44.2,119.98-15.82,31.94-36.36,57.02-61.61,75.35-21.09,15.33-46.84,24.09-77.06,26.61-8.77-.74-16.06-2.02-21.89-3.86-9.87-3.13-16.98-9.26-21.34-18.33-4.35-9.01-6.5-22.56-6.5-40.46v-536.57c0-32.19,2.7-55.42,8.03-69.77,5.4-14.35,13.18-23.36,23.3-27.04,10.18-3.68,26.42-6.19,48.86-7.48v-28.32h-316.59v28.32c23.42,2.21,40.65,7.79,51.74,16.8,11.04,8.95,16.55,30.16,16.55,63.64v550.11c0,21.83-2.45,38.13-7.36,48.86-4.9,10.73-11.53,17.84-19.8,21.34-8.28,3.49-22.01,7.05-41.14,10.55v28.26h498.68l32.62-257.98h-62.29ZM1592.88,1233.14v28.57c24.22,2.27,41.93,7.85,53.09,16.8,11.22,8.95,16.8,30.16,16.8,63.64v549.93c0,22.38-2.51,38.93-7.54,49.6-5.09,10.73-12.14,17.9-21.21,21.52-9.01,3.62-22.75,6.81-41.14,9.56v28.26h325.3v-28.26c-22.38-1.29-39.3-3.56-50.76-6.81-11.4-3.25-20.42-10.42-26.85-21.64-6.5-11.16-9.69-28.57-9.69-52.23v-259.7c12.94,3.8,23.91,9.75,32.8,17.84,16.86,15.39,28.39,35.13,34.64,59.22,6.31,24.16,11.22,55.42,14.9,93.86h59.16v-383.79h-59.16c-4.66,38.62-10.24,69.22-16.61,91.78-6.44,22.56-17.78,41.08-34.09,55.61-8.52,7.6-19.13,13.18-31.63,16.8v-258.47c0-23.3,3.74-38.01,11.34-44.2,5.46-4.48,14.96-7.3,28.45-8.58,33.23,2.08,59.65,9.07,78.9,21.03,23.36,14.53,40.03,34.7,49.9,60.63,9.87,25.87,18.27,61.61,25.14,107.29h58.18v-228.25h-489.91Z"/>
          <path class="cls-11" d="M1632.07,1233.17v28.56c24.19,2.22,41.89,7.81,53.09,16.78,11.19,8.97,16.79,30.18,16.79,63.64v549.91c0,22.37-2.52,38.92-7.57,49.64-5.05,10.72-12.1,17.89-21.16,21.49-9.06,3.61-22.78,6.79-41.15,9.57v28.29h286.13v-28.29c-22.39-1.29-39.31-3.56-50.77-6.79-11.45-3.23-20.41-10.44-26.88-21.63-6.47-11.18-9.7-28.61-9.7-52.27v-264.83c31.19,0,55.19,7.67,72.02,23.02,16.82,15.35,28.37,35.08,34.65,59.21,6.27,24.12,11.23,55.42,14.85,93.87h19.99v-383.8h-19.99c-4.66,38.64-10.19,69.24-16.59,91.79-6.41,22.56-17.76,41.09-34.07,55.6-16.31,14.52-39.93,21.77-70.85,21.77v-263.45c0-23.29,3.78-38.04,11.35-44.23,7.57-6.19,22.81-9.29,45.71-9.29,43.88,0,77.49,7.26,100.85,21.77,23.36,14.52,39.99,34.71,49.89,60.59,9.9,25.89,18.28,61.66,25.14,107.32h19.02v-228.23h-450.74ZM477.27,1853.23c-13.85,31.43-30.48,54.91-49.89,70.44-19.41,15.53-41.86,25.89-67.35,31.06-25.5,5.18-57.92,7.77-97.25,7.77-5.69,0-14.69-.18-26.98-.55-12.3-.37-21.81-.55-28.53-.55l301.27-709.92v-18.3H91.94l-16.69,234.05h22.13c11.13-45.11,23.43-83.06,36.89-113.84,13.46-30.78,33.26-51.9,59.4-63.37,9.44-4.25,17.69-7.11,24.75-8.6,7.06-1.48,20.74-2.82,41.06-4.02,20.32-1.2,51.89-2.73,94.73-4.58L50.6,1982.74v18.3h461.03l20.77-273.71h-20.77c-9.06,52.51-20.51,94.47-34.36,125.9ZM989.35,1889.7c-22.13,29.86-45.71,50.01-70.76,60.45-25.04,10.45-52.25,15.67-81.62,15.67-26.01,0-43.65-4.39-52.9-13.17-9.25-8.78-13.88-25.56-13.88-50.33v-275.09c41.41,0,72.12,12.34,92.11,37.02,19.99,24.68,32.19,71.04,36.59,139.07h20.77v-383.8h-20.77c-3.76,45.67-10.81,80.79-21.16,105.38-10.35,24.59-24.01,41.37-40.96,50.33-16.96,8.97-39.15,13.45-66.58,13.45v-263.45c0-23.29,3.82-38.04,11.45-44.23,7.63-6.19,23.16-9.29,46.59-9.29,38.82,0,70.04,4.81,93.66,14.42,23.61,9.61,42.74,28.15,57.36,55.6,14.62,27.46,24.98,67.34,31.06,119.66h19.8v-228.23h-458.7v28.56c15.92,1.48,28.47,3.79,37.66,6.93,9.19,3.15,16.85,10.4,23,21.77,6.15,11.37,9.22,28.61,9.22,51.72v549.91c0,22.37-2.52,38.92-7.57,49.64-5.05,10.72-12.1,17.89-21.16,21.49-9.06,3.61-22.78,6.79-41.15,9.57v28.29h465.1l31.84-236.27h-22.32c-15.66,53.43-34.55,95.07-56.68,124.93ZM1528.9,1863.04c-15.85,31.9-36.4,57.01-61.63,75.32-25.24,18.31-57.01,27.46-95.31,27.46-18.64,0-32.91-1.57-42.8-4.71-9.9-3.15-17.02-9.25-21.35-18.31-4.34-9.06-6.5-22.56-6.5-40.5v-536.53c0-32.18,2.68-55.44,8.05-69.77,5.37-14.33,13.14-23.35,23.3-27.05,10.15-3.7,26.43-6.2,48.82-7.49v-28.29h-277.39v28.29c23.42,2.22,40.67,7.82,51.73,16.78,11.06,8.97,16.6,30.19,16.6,63.67v550.12c0,21.83-2.46,38.1-7.38,48.83-4.92,10.73-11.52,17.85-19.8,21.36-8.29,3.51-22.01,7.03-41.15,10.54v28.29h459.47l32.61-257.98h-23.1c-13.58,48.09-28.31,88.08-44.16,119.98Z"/>
        </g>
      </g>
    </g>
  </g>
</svg>